<svg width="64" height="64" viewBox="0 0 64 64" fill="none" xmlns="http://www.w3.org/2000/svg">
    <path
        d="M40.2066 6.85742C45.1964 6.85742 47.5958 7.32077 50.0888 8.65404C52.3495 9.8631 54.1375 11.651 55.3465 13.9118C56.6798 16.4048 57.1431 18.8042 57.1431 23.7939V40.2066C57.1431 45.1964 56.6798 47.5958 55.3465 50.0888C54.1375 52.3495 52.3495 54.1375 50.0888 55.3465C47.5958 56.6798 45.1964 57.1431 40.2066 57.1431H23.7939C18.8042 57.1431 16.4048 56.6798 13.9118 55.3465C11.651 54.1375 9.8631 52.3495 8.65404 50.0888C7.32077 47.5958 6.85742 45.1964 6.85742 40.2066V23.7939C6.85742 18.8042 7.32077 16.4048 8.65404 13.9118C9.8631 11.651 11.651 9.8631 13.9118 8.65404C16.4048 7.32077 18.8042 6.85742 23.7939 6.85742H40.2066ZM40.2066 11.4289H23.7939C19.4943 11.4289 17.8079 11.7545 16.0677 12.6852C14.6036 13.4682 13.4682 14.6036 12.6852 16.0677C11.7545 17.8079 11.4289 19.4943 11.4289 23.7939V40.2066C11.4289 44.5062 11.7545 46.1927 12.6852 47.9329C13.4682 49.397 14.6036 50.5324 16.0677 51.3154C17.8079 52.246 19.4943 52.5717 23.7939 52.5717H40.2066C44.5062 52.5717 46.1927 52.246 47.9329 51.3154C49.397 50.5324 50.5324 49.397 51.3154 47.9329C52.246 46.1927 52.5717 44.5062 52.5717 40.2066V23.7939C52.5717 19.4943 52.246 17.8079 51.3154 16.0677C50.5324 14.6036 49.397 13.4682 47.9329 12.6852C46.1927 11.7545 44.5062 11.4289 40.2066 11.4289ZM29.7146 40.0003C30.9769 40.0003 32.0003 41.0236 32.0003 42.286C32.0003 43.5484 30.9769 44.5717 29.7146 44.5717H20.5717C19.3093 44.5717 18.286 43.5484 18.286 42.286C18.286 41.0236 19.3093 40.0003 20.5717 40.0003H29.7146ZM43.4288 29.7146C44.6912 29.7146 45.7146 30.7379 45.7146 32.0003C45.7146 33.2626 44.6912 34.286 43.4288 34.286H20.5717C19.3093 34.286 18.286 33.2626 18.286 32.0003C18.286 30.7379 19.3093 29.7146 20.5717 29.7146H43.4288ZM43.4288 19.4289C44.6912 19.4289 45.7146 20.4522 45.7146 21.7146C45.7146 22.9769 44.6912 24.0003 43.4288 24.0003H20.5717C19.3093 24.0003 18.286 22.9769 18.286 21.7146C18.286 20.4522 19.3093 19.4289 20.5717 19.4289H43.4288Z"
        fill="currentColor" />
</svg>