<svg width="51" height="51" viewBox="0 0 51 51" fill="none" xmlns="http://www.w3.org/2000/svg">
    <g id="Untitled-1 3" clip-path="url(#clip0_860_15051)">
        <path id="Vector"
            d="M0.615412 25.3116V5.88096C0.570874 5.17843 0.676305 4.47444 0.924694 3.81577C1.17308 3.15711 1.55876 2.55882 2.0561 2.06063C2.55345 1.56244 3.15106 1.17575 3.80931 0.926241C4.46755 0.676731 5.17137 0.570117 5.87398 0.613459H31.6381C32.3407 0.568921 33.0446 0.674352 33.7033 0.922741C34.362 1.17113 34.9603 1.55678 35.4585 2.05412C35.9566 2.55147 36.3433 3.14911 36.5928 3.80735C36.8424 4.4656 36.949 5.16939 36.9056 5.872V17.0072C36.9266 17.3446 36.8421 17.6802 36.664 17.9674C36.4858 18.2547 36.2228 18.4795 35.9113 18.6107C35.6189 18.7565 35.2878 18.8055 34.9657 18.7507C34.6437 18.696 34.3474 18.5403 34.1196 18.3062C33.9322 18.1294 33.7867 17.913 33.6937 17.6727C33.6007 17.4325 33.5626 17.1745 33.5821 16.9176C33.5821 13.2447 33.5821 9.56882 33.5821 5.88993C33.5821 4.52826 32.9729 3.91012 31.6023 3.91012H5.90085C4.52127 3.91012 3.9121 4.51034 3.9121 5.88096V44.8497C3.87052 45.1165 3.89264 45.3893 3.97667 45.6458C4.06071 45.9024 4.20428 46.1354 4.39561 46.3259C4.58695 46.5163 4.82063 46.6588 5.07757 46.7417C5.33451 46.8245 5.60742 46.8454 5.87398 46.8026H21.9004C22.1799 46.7783 22.4611 46.8253 22.7175 46.9392C22.9738 47.0532 23.1971 47.2304 23.3663 47.4542C23.5355 47.678 23.6451 47.9411 23.6849 48.2189C23.7246 48.4966 23.6932 48.7799 23.5936 49.0422C23.4719 49.357 23.2561 49.6267 22.9755 49.8143C22.6949 50.0018 22.3633 50.0983 22.0258 50.0903C20.9061 50.0903 19.7952 50.0903 18.6754 50.0903H5.83814C5.14004 50.1282 4.44183 50.0181 3.78924 49.7673C3.13665 49.5165 2.54441 49.1306 2.05132 48.635C1.55824 48.1394 1.17543 47.5452 0.927975 46.8913C0.680524 46.2374 0.574006 45.5386 0.615412 44.8407V25.3116Z"
            fill="currentColor" stroke="currentColor" stroke-width="0.895833" stroke-miterlimit="10" />
        <path id="Vector_2"
            d="M35.231 50.1C32.2937 50.0947 29.4239 49.218 26.985 47.5809C24.5462 45.9438 22.6478 43.6199 21.5303 40.9034C20.4128 38.1869 20.1263 35.1999 20.7072 32.3206C21.2881 29.4412 22.7102 26.7989 24.7935 24.7282C26.8768 22.6574 29.5277 21.2513 32.4105 20.6878C35.2933 20.1243 38.2785 20.4288 40.9882 21.5627C43.6979 22.6966 46.0103 24.609 47.6326 27.0577C49.2549 29.5064 50.1143 32.3814 50.1019 35.3187C50.0782 39.2472 48.501 43.0067 45.7148 45.7762C42.9285 48.5456 39.1595 50.1001 35.231 50.1ZM35.231 46.7944C37.516 46.7979 39.7507 46.1235 41.6522 44.8564C43.5537 43.5893 45.0365 41.7866 45.913 39.6764C46.7894 37.5662 47.0201 35.2434 46.5759 33.002C46.1316 30.7607 45.0324 28.7015 43.4173 27.0851C41.8022 25.4688 39.7439 24.3679 37.5028 23.9219C35.2618 23.4759 32.9388 23.7048 30.8279 24.5797C28.717 25.4545 26.9132 26.9359 25.6446 28.8364C24.3761 30.7369 23.6999 32.9711 23.7017 35.2561C23.7064 38.3148 24.9235 41.2468 27.0864 43.4097C29.2492 45.5725 32.1813 46.7896 35.24 46.7944H35.231Z"
            fill="currentColor" stroke="currentColor" stroke-width="0.895833" stroke-miterlimit="10" />
        <path id="Vector_3"
            d="M18.7109 20.4134H9.11652C8.85926 20.4506 8.59684 20.4275 8.35006 20.3458C8.10327 20.2642 7.87886 20.1262 7.69461 19.9428C7.51036 19.7594 7.37133 19.5357 7.2885 19.2893C7.20566 19.0429 7.18131 18.7806 7.21736 18.5231C7.21736 15.3818 7.21736 12.2374 7.21736 9.09002C7.18464 8.83598 7.21093 8.57781 7.29418 8.33558C7.37743 8.09335 7.51539 7.87359 7.69737 7.69334C7.87935 7.5131 8.10045 7.37724 8.34347 7.2963C8.58648 7.21537 8.84487 7.19155 9.09859 7.2267H28.4217C28.6751 7.1934 28.9327 7.21849 29.1749 7.30008C29.417 7.38166 29.6374 7.51759 29.8189 7.69742C30.0005 7.87725 30.1385 8.09623 30.2224 8.33761C30.3063 8.57898 30.3339 8.83635 30.303 9.09002V18.5321C30.3249 18.7784 30.2914 19.0264 30.205 19.2581C30.1187 19.4897 29.9816 19.6991 29.8038 19.8709C29.626 20.0427 29.412 20.1725 29.1775 20.2509C28.943 20.3293 28.694 20.3542 28.4486 20.3238L18.7109 20.4134ZM10.5319 17.0719H26.9615V10.5413H10.5319V17.0719Z"
            fill="currentColor" stroke="currentColor" stroke-width="0.895833" stroke-miterlimit="10" />
        <path id="Vector_4"
            d="M9.67271 28.6537C9.35917 28.6537 9.05458 28.6537 8.77687 28.6537C8.3618 28.6221 7.97408 28.4345 7.69158 28.1288C7.40909 27.823 7.25274 27.4217 7.25395 27.0054C7.25101 26.5889 7.40846 26.1872 7.69366 25.8837C7.97886 25.5801 8.36996 25.398 8.78584 25.375C9.38306 25.375 10.0012 25.375 10.6402 25.375C11.0552 25.4057 11.4433 25.5922 11.7265 25.8971C12.0097 26.202 12.1671 26.6027 12.1671 27.0188C12.1671 27.435 12.0097 27.8357 11.7265 28.1406C11.4433 28.4455 11.0552 28.632 10.6402 28.6627C10.3356 28.6627 10.0221 28.6627 9.74436 28.6627L9.67271 28.6537Z"
            fill="currentColor" stroke="currentColor" stroke-width="0.895833" stroke-miterlimit="10" />
        <path id="Vector_5"
            d="M16.2834 28.6529H15.3876C14.9621 28.6368 14.5591 28.4576 14.2622 28.1524C13.9653 27.8472 13.7973 27.4393 13.793 27.0136C13.7904 26.5879 13.9534 26.1779 14.2476 25.8702C14.5419 25.5626 14.9443 25.3815 15.3696 25.3652C15.9669 25.3652 16.5641 25.3652 17.1613 25.3652C17.5961 25.3652 18.0131 25.5379 18.3205 25.8454C18.628 26.1528 18.8007 26.5698 18.8007 27.0046C18.8007 27.4394 18.628 27.8564 18.3205 28.1638C18.0131 28.4713 17.5961 28.644 17.1613 28.644C16.9194 28.6709 16.588 28.6529 16.2834 28.6529Z"
            fill="currentColor" stroke="currentColor" stroke-width="0.895833" stroke-miterlimit="10" />
        <path id="Vector_6"
            d="M9.75268 30.3107C10.0393 30.3107 10.335 30.3107 10.6485 30.3107C11.0739 30.3314 11.475 30.5151 11.7686 30.8237C12.0622 31.1323 12.2257 31.5421 12.2252 31.968C12.2213 32.3846 12.0588 32.7841 11.771 33.0852C11.4831 33.3864 11.0914 33.5667 10.6754 33.5895C10.0578 33.6253 9.43861 33.6253 8.821 33.5895C8.38621 33.5895 7.96923 33.4167 7.66179 33.1093C7.35435 32.8019 7.18164 32.3849 7.18164 31.9501C7.18164 31.5153 7.35435 31.0983 7.66179 30.7909C7.96923 30.4834 8.38621 30.3107 8.821 30.3107C9.08975 30.2928 9.4033 30.3107 9.75268 30.3107Z"
            fill="currentColor" stroke="currentColor" stroke-width="0.895833" stroke-miterlimit="10" />
        <path id="Vector_7"
            d="M16.2659 30.3125C16.5705 30.3125 16.884 30.3125 17.1617 30.3125C17.5767 30.3431 17.9648 30.5296 18.248 30.8345C18.5312 31.1394 18.6886 31.5402 18.6886 31.9563C18.6886 32.3725 18.5312 32.7732 18.248 33.0781C17.9648 33.3831 17.5767 33.5695 17.1617 33.6002C16.544 33.6316 15.9251 33.6316 15.3074 33.6002C14.8726 33.6002 14.4556 33.4275 14.1481 33.12C13.8407 32.8126 13.668 32.3956 13.668 31.9608C13.668 31.526 13.8407 31.109 14.1481 30.8016C14.4556 30.4942 14.8726 30.3215 15.3074 30.3215C15.6747 30.2946 15.9703 30.3125 16.2659 30.3125Z"
            fill="currentColor" stroke="currentColor" stroke-width="0.895833" stroke-miterlimit="10" />
        <path id="Vector_8"
            d="M9.68056 38.5514C9.3939 38.5514 9.09827 38.5514 8.78473 38.5514C8.36972 38.5207 7.98164 38.3342 7.69843 38.0293C7.41522 37.7244 7.25781 37.3237 7.25781 36.9075C7.25781 36.4914 7.41522 36.0906 7.69843 35.7857C7.98164 35.4808 8.36972 35.2943 8.78473 35.2637C9.38195 35.2637 9.97918 35.2637 10.5764 35.2637C10.9914 35.2943 11.3795 35.4808 11.6627 35.7857C11.9459 36.0906 12.1033 36.4914 12.1033 36.9075C12.1033 37.3237 11.9459 37.7244 11.6627 38.0293C11.3795 38.3342 10.9914 38.5207 10.5764 38.5514C10.3076 38.5604 9.99411 38.5514 9.68056 38.5514Z"
            fill="currentColor" stroke="currentColor" stroke-width="0.895833" stroke-miterlimit="10" />
        <path id="Vector_9"
            d="M16.2746 38.5459C15.97 38.5459 15.6565 38.5459 15.3788 38.5459C14.9628 38.5166 14.5731 38.3315 14.2875 38.0277C14.002 37.7238 13.8414 37.3235 13.8379 36.9065C13.8349 36.4891 13.9921 36.0864 14.277 35.7814C14.562 35.4764 14.9531 35.2923 15.3698 35.2671C16.0024 35.2313 16.6364 35.2313 17.269 35.2671C17.6763 35.2962 18.0579 35.4772 18.3382 35.7741C18.6185 36.071 18.7772 36.4623 18.7829 36.8707C18.7892 37.2881 18.6377 37.6926 18.3587 38.0031C18.0797 38.3137 17.6937 38.5075 17.2779 38.5459C16.9554 38.5459 16.6329 38.5459 16.3015 38.5459H16.2746Z"
            fill="currentColor" stroke="currentColor" stroke-width="0.895833" stroke-miterlimit="10" />
        <path id="Vector_10"
            d="M9.67194 43.4995C9.36736 43.4995 9.05382 43.4995 8.77611 43.4995C8.34132 43.4995 7.92434 43.3267 7.6169 43.0193C7.30945 42.7119 7.13672 42.2949 7.13672 41.8601C7.13672 41.4253 7.30945 41.0083 7.6169 40.7009C7.92434 40.3934 8.34132 40.2207 8.77611 40.2207C9.40319 40.2207 10.0482 40.2207 10.6753 40.2207C11.0805 40.2631 11.4557 40.4541 11.7284 40.7569C12.0011 41.0596 12.152 41.4526 12.152 41.8601C12.152 42.2675 12.0011 42.6606 11.7284 42.9633C11.4557 43.266 11.0805 43.457 10.6753 43.4995C10.3528 43.4995 10.0213 43.4995 9.69882 43.4995H9.67194Z"
            fill="currentColor" stroke="currentColor" stroke-width="0.895833" stroke-miterlimit="10" />
        <path id="Vector_11"
            d="M16.2754 43.4995C15.9619 43.4995 15.6483 43.4995 15.3796 43.4995C14.9644 43.4701 14.5758 43.2847 14.2917 42.9807C14.0075 42.6766 13.8489 42.2763 13.8477 41.8601C13.8446 41.4427 14.0018 41.04 14.2868 40.735C14.5718 40.43 14.9629 40.2459 15.3796 40.2207C16.0156 40.2207 16.6517 40.2207 17.2877 40.2207C17.6942 40.2541 18.0736 40.4378 18.3519 40.736C18.6302 41.0342 18.7874 41.4254 18.7927 41.8332C18.7988 42.2497 18.647 42.6531 18.3678 42.9622C18.0886 43.2713 17.7027 43.4633 17.2877 43.4995C16.9652 43.4995 16.6337 43.4995 16.3112 43.4995H16.2754Z"
            fill="currentColor" stroke="currentColor" stroke-width="0.895833" stroke-miterlimit="10" />
        <path id="Vector_12"
            d="M40.2109 31.8067C40.2323 32.2439 40.0791 32.6716 39.7851 32.9958C39.4911 33.3201 39.0803 33.5143 38.6432 33.5356C38.206 33.557 37.7783 33.4039 37.454 33.1099C37.1298 32.8159 36.9356 32.4051 36.9142 31.9679C36.9158 31.6393 36.8192 31.3177 36.6366 31.0444C36.4541 30.7711 36.1941 30.5586 35.8899 30.4342C35.5857 30.3098 35.2513 30.2791 34.9295 30.3462C34.6078 30.4133 34.3135 30.575 34.0843 30.8106C33.8552 31.0461 33.7017 31.3448 33.6436 31.6683C33.5854 31.9918 33.6253 32.3252 33.7581 32.6258C33.8909 32.9265 34.1105 33.1805 34.3888 33.3554C34.667 33.5303 34.9912 33.618 35.3196 33.6073C36.437 33.6232 37.5163 34.0157 38.3829 34.7213C39.2494 35.4269 39.8525 36.4043 40.0944 37.4952C40.339 38.6124 40.1866 39.7799 39.6634 40.7969C39.1402 41.8139 38.2789 42.6167 37.2278 43.0673C37.1264 43.1012 37.0394 43.1682 36.9809 43.2576C36.9224 43.347 36.8957 43.4536 36.9053 43.56C36.9053 43.9948 36.7326 44.4118 36.4251 44.7192C36.1177 45.0267 35.7007 45.1994 35.2659 45.1994C34.8311 45.1994 34.4141 45.0267 34.1067 44.7192C33.7992 44.4118 33.6265 43.9948 33.6265 43.56C33.63 43.4453 33.5961 43.3325 33.5298 43.2388C33.4635 43.145 33.3686 43.0754 33.2592 43.0404C32.407 42.6782 31.6768 42.0786 31.1559 41.3131C30.6349 40.5475 30.345 39.6482 30.3209 38.7225C30.3013 38.5017 30.3265 38.2791 30.395 38.0683C30.4634 37.8574 30.5737 37.6625 30.7192 37.4952C30.8648 37.3279 31.0425 37.1917 31.2419 37.0948C31.4413 36.9978 31.6582 36.942 31.8796 36.9309C32.1037 36.9212 32.3273 36.9569 32.5372 37.0357C32.7471 37.1146 32.939 37.235 33.1012 37.3897C33.2635 37.5445 33.3929 37.7303 33.4816 37.9363C33.5703 38.1422 33.6166 38.3639 33.6176 38.5882C33.6223 38.9965 33.7775 39.3887 34.0536 39.6896C34.3297 39.9905 34.7072 40.1788 35.1136 40.2186C35.3379 40.2411 35.5645 40.2174 35.7792 40.1489C35.994 40.0804 36.1925 39.9685 36.3623 39.8203C36.5321 39.672 36.6697 39.4905 36.7666 39.2869C36.8635 39.0834 36.9176 38.8621 36.9256 38.6368C36.9336 38.4115 36.8953 38.187 36.813 37.9771C36.7308 37.7672 36.6063 37.5764 36.4474 37.4165C36.2885 37.2566 36.0985 37.131 35.8891 37.0475C35.6797 36.964 35.4554 36.9243 35.2301 36.9309C34.1116 36.9195 33.0301 36.5285 32.1628 35.8221C31.2956 35.1156 30.694 34.1356 30.4566 33.0425C30.2193 31.9494 30.3602 30.8081 30.8564 29.8056C31.3525 28.8031 32.1745 27.9988 33.1876 27.5246C33.3229 27.4845 33.4408 27.3999 33.5221 27.2844C33.6034 27.169 33.6433 27.0295 33.6355 26.8885C33.666 26.4782 33.8505 26.0945 34.152 25.8145C34.4536 25.5345 34.8499 25.3789 35.2614 25.3789C35.6729 25.3789 36.0692 25.5345 36.3708 25.8145C36.6723 26.0945 36.8569 26.4782 36.8874 26.8885C36.8795 27.0295 36.9195 27.169 37.0008 27.2844C37.082 27.3999 37.1999 27.4845 37.3353 27.5246C38.1641 27.9021 38.8718 28.5023 39.3795 29.2584C39.8872 30.0145 40.175 30.8967 40.2109 31.8067Z"
            fill="currentColor" stroke="currentColor" stroke-width="0.895833" stroke-miterlimit="10" />
    </g>
    <defs>
        <clipPath id="clip0_860_15051">
            <rect width="50.3817" height="50.3817" fill="white"
                transform="translate(0.167969 0.167969)" />
        </clipPath>
    </defs>
</svg>