<svg width="54" height="54" viewBox="0 0 54 54" fill="none" xmlns="http://www.w3.org/2000/svg">
    <g id="t&#201;&#153;qaud 1" clip-path="url(#clip0_3001_12447)">
        <path id="Vector"
            d="M37.6289 52.5448C36.6649 52.3297 35.6743 52.1929 34.7407 51.8808C32.1434 51.0321 29.8897 49.367 28.3154 47.1336C26.7412 44.9001 25.9306 42.2178 26.0045 39.4863C26.0045 39.3216 26.0045 39.1583 26.0045 39.0879C23.9728 38.8555 21.9491 38.7506 19.9825 38.3602C18.0159 37.9698 16.1077 37.2979 14.1398 36.7309C14.122 37.1518 14.1282 37.5735 14.1584 37.9937C14.173 38.1265 14.4027 38.2593 14.5567 38.331C15.2121 38.6039 15.7664 39.0739 16.1428 39.6758C16.5192 40.2777 16.6991 40.9819 16.6575 41.6906C16.6238 42.2936 16.4294 42.8767 16.0945 43.3794C15.7596 43.882 15.2963 44.286 14.7527 44.5493C14.2092 44.8126 13.605 44.9257 13.003 44.8769C12.4009 44.8281 11.8229 44.6192 11.3288 44.2717C10.8348 43.9243 10.4426 43.451 10.193 42.901C9.94345 42.3509 9.84555 41.7442 9.90946 41.1435C9.97338 40.5429 10.1968 39.9703 10.5565 39.4851C10.9163 38.9999 11.3992 38.6198 11.9554 38.3841C12.367 38.2194 12.4533 37.999 12.4361 37.6099C12.4108 36.9805 12.6007 36.2754 12.3737 35.7403C12.1612 35.2383 11.5225 34.9196 11.079 34.512C9.71787 33.2611 8.98488 31.7592 9.01675 29.855C9.07119 26.6521 9.02471 23.4479 9.04198 20.2451C9.04198 19.8547 8.93043 19.6634 8.57057 19.5028C6.56014 18.6091 4.57493 17.6596 2.55653 16.7859C1.56857 16.3583 0.830265 15.7634 0.552734 14.6891V13.8924C0.818314 12.8381 1.54069 12.2471 2.50607 11.8116C7.6769 9.47847 12.8265 7.09623 17.9973 4.76046C20.4499 3.65299 22.9331 2.61325 25.4016 1.54297H26.5968C27.185 1.75278 27.7919 1.92275 28.3589 2.18036C32.7852 4.18814 37.2115 6.20521 41.6378 8.23158C44.3308 9.46121 47.0198 10.6988 49.7167 11.9191C50.4949 12.2697 51.1004 12.765 51.3421 13.6135C51.6913 14.8405 51.1243 16.0038 49.8708 16.5761C47.709 17.5764 45.5401 18.5648 43.3641 19.5413C43.06 19.6741 42.9538 19.8334 42.9551 20.168C42.971 22.5397 42.971 24.9122 42.9551 27.2856C42.9551 27.6614 43.072 27.8167 43.4225 27.9601C45.8932 28.9441 47.9938 30.677 49.4294 32.9156C50.8649 35.1542 51.5635 37.7862 51.427 40.4421C51.2905 43.098 50.3257 45.6444 48.6682 47.7241C47.0106 49.8037 44.7435 51.3121 42.1849 52.0375C41.4094 52.2553 40.6061 52.3708 39.816 52.5342L37.6289 52.5448ZM21.321 15.7156C20.5774 14.069 20.9678 12.7863 22.4643 11.8368C23.2395 11.3514 24.1168 11.0527 25.0272 10.9644C26.7189 10.7838 28.3469 10.9856 29.7651 12.0041C30.6203 12.615 31.174 13.4263 31.0625 14.5271C30.9483 15.6585 30.2365 16.3995 29.2871 16.8895C27.2687 17.9332 25.1918 17.9677 23.107 17.0833C22.9855 17.0205 22.8503 16.9889 22.7135 16.9914C22.5767 16.994 22.4427 17.0306 22.3236 17.0979C20.1007 18.2386 17.8698 19.3633 15.6416 20.4947C15.5301 20.5518 15.4292 20.6275 15.2871 20.7204C18.4182 22.1506 21.5069 23.5475 24.5823 24.9697C25.0189 25.1888 25.5002 25.3038 25.9887 25.3056C26.4771 25.3075 26.9593 25.1961 27.3975 24.9803C34.6142 21.6712 41.8357 18.3714 49.0621 15.0809C49.41 14.9228 49.726 14.7396 49.7353 14.3094C49.746 13.8526 49.4206 13.6587 49.0541 13.4927C47.5005 12.7916 45.9522 12.0811 44.4065 11.3681C38.7196 8.78044 33.0313 6.18617 27.3417 3.58527C26.4786 3.1869 25.63 3.14441 24.7563 3.5441C17.4599 6.87889 10.1623 10.211 2.86328 13.5405C2.52334 13.6959 2.19933 13.9229 2.28298 14.3027C2.32366 14.4547 2.39462 14.5969 2.4916 14.7208C2.58857 14.8447 2.70957 14.9478 2.84734 15.0238C6.22019 16.5947 9.60899 18.135 12.9991 19.6714C13.1586 19.7371 13.3376 19.7371 13.4971 19.6714C16.0997 18.3674 18.6945 17.0488 21.321 15.7156ZM38.7284 28.7423C35.8097 28.744 33.0104 29.9013 30.9425 31.9612C28.8747 34.021 27.7066 36.8159 27.6936 39.7346C27.671 45.8522 32.632 50.8438 38.7284 50.8371C44.7836 50.8371 49.734 45.8774 49.7499 39.8156C49.7531 36.8867 48.5946 34.0762 46.5285 32.0003C44.4623 29.9245 41.6572 28.7528 38.7284 28.7423ZM41.2328 20.5545C41.0097 20.6461 40.8345 20.7138 40.6552 20.7935C36.4896 22.6963 32.3173 24.5886 28.1597 26.5114C26.699 27.1886 25.2808 27.1846 23.8148 26.4955C21.159 25.2419 18.4647 24.0415 15.7864 22.8198C15.2632 22.5808 14.7373 22.3484 14.1331 22.0762V33.2385C14.1331 34.735 14.1331 34.7443 15.5261 35.326C18.7834 36.6831 22.2001 37.185 25.7044 37.2395C26.1307 37.2395 26.29 37.1226 26.3909 36.7083C27.1262 33.7103 28.93 31.0835 31.464 29.3206C33.9979 27.5578 37.088 26.7799 40.1546 27.1328L41.2328 27.2656V20.5545ZM12.3644 33.4231C12.3909 33.3552 12.4109 33.285 12.4241 33.2133C12.4241 29.3358 12.4241 25.4584 12.4241 21.5809C12.4241 21.4654 12.3737 21.2848 12.2913 21.2423C11.8027 20.9913 11.2981 20.7722 10.7775 20.5319C10.7582 20.6093 10.7435 20.6877 10.7337 20.7669C10.7337 23.9539 10.7098 27.1302 10.7417 30.3105C10.7576 31.564 11.326 32.5958 12.3644 33.4231ZM25.962 12.5977C25.0484 12.6123 24.1441 12.7717 23.3408 13.2922C22.3701 13.9203 22.3754 14.6612 23.3408 15.3C24.7404 16.2295 27.282 16.2229 28.6816 15.2893C29.6111 14.6692 29.619 13.915 28.6816 13.3055C27.8636 12.7756 26.9447 12.6097 25.962 12.6004V12.5977ZM14.9697 41.4967C14.976 41.2706 14.937 41.0456 14.8548 40.8349C14.7727 40.6242 14.6492 40.4321 14.4915 40.2699C14.3338 40.1078 14.1453 39.9789 13.937 39.8909C13.7286 39.8029 13.5048 39.7576 13.2786 39.7576C13.0525 39.7576 12.8286 39.8029 12.6203 39.8909C12.412 39.9789 12.2234 40.1078 12.0657 40.2699C11.9081 40.4321 11.7845 40.6242 11.7024 40.8349C11.6203 41.0456 11.5812 41.2706 11.5875 41.4967C11.5999 41.937 11.7835 42.3551 12.0993 42.6622C12.4151 42.9693 12.8382 43.141 13.2786 43.141C13.7191 43.141 14.1422 42.9693 14.458 42.6622C14.7738 42.3551 14.9574 41.937 14.9697 41.4967Z"
            fill="currentColor" stroke="currentColor" stroke-width="1.33333" stroke-miterlimit="10" />
        <path id="Vector_2"
            d="M39.5647 33.989C39.5647 35.3713 39.5993 36.662 39.5515 37.9501C39.5236 38.6605 39.6404 39.0576 40.4265 39.3391C42.032 39.9141 43.0412 41.6416 42.9615 43.3121C42.8752 45.134 41.7664 46.6465 40.0627 47.1989C39.6882 47.3197 39.5315 47.4645 39.5528 47.8788C39.5873 48.7273 39.2766 49.1429 38.7069 49.1336C38.1373 49.1243 37.8504 48.7127 37.8743 47.8562C37.8836 47.4817 37.7814 47.3171 37.4043 47.1922C36.0538 46.762 35.1561 45.8365 34.6927 44.498C34.4842 43.8951 34.6714 43.4423 35.1681 43.2657C35.6647 43.0891 36.0684 43.3294 36.2968 43.9363C36.6248 44.81 37.1068 45.308 37.8305 45.5045C37.8469 45.4092 37.8575 45.3129 37.8624 45.2163C37.8624 43.7902 37.8624 42.3627 37.8624 40.9365C37.8624 40.671 37.7973 40.5382 37.5131 40.4505C35.6421 39.849 34.459 38.2356 34.459 36.3672C34.459 34.4989 35.6541 32.9147 37.4946 32.3251C37.7601 32.2401 37.8783 32.1352 37.8611 31.8458C37.8405 31.5818 37.8575 31.3162 37.9115 31.057C37.9462 30.8752 38.0466 30.7127 38.1936 30.6002C38.3406 30.4878 38.5238 30.4334 38.7083 30.4475C39.1332 30.4475 39.5448 30.6998 39.493 31.1114C39.3695 32.0901 39.9432 32.3437 40.6881 32.6664C41.7332 33.1219 42.3892 34.0129 42.7437 35.1031C42.9296 35.6754 42.7437 36.1362 42.279 36.3048C41.785 36.4841 41.3494 36.2464 41.141 35.6502C40.8913 34.8866 40.408 34.3449 39.5647 33.989ZM39.5926 45.5417C40.1278 45.3525 40.5822 44.9859 40.8803 44.5028C41.1784 44.0196 41.3022 43.4491 41.2313 42.8859C41.1131 41.9032 40.3761 41.0096 39.5926 40.9073V45.5417ZM37.8225 38.6897V34.0514C36.7841 34.4391 36.1096 35.4603 36.1746 36.5C36.2397 37.5398 36.9528 38.4985 37.8225 38.6871V38.6897Z"
            fill="currentColor" stroke="currentColor" stroke-width="0.652501" stroke-miterlimit="10" />
    </g>
    <defs>
        <clipPath id="clip0_3001_12447">
            <rect width="53.3333" height="53.3333" fill="white"
                transform="translate(0.222656 0.333984)" />
        </clipPath>
    </defs>
</svg>