<svg width="44" height="64" viewBox="0 0 44 64" fill="none" xmlns="http://www.w3.org/2000/svg">
    <g id="seminar 2" clip-path="url(#clip0_3001_20930)">
        <path id="Vector"
            d="M3.1601 23.3288C3.1601 21.6644 3.17675 20.0965 3.1601 18.5202C3.13467 17.9894 3.24241 17.4607 3.47353 16.9822C3.70464 16.5037 4.05178 16.0906 4.48334 15.7805C5.25731 15.188 6.02295 14.5821 6.76362 13.9497C6.96223 13.7594 7.09563 13.5112 7.14478 13.2406C7.28626 12.1271 8.14345 11.3315 9.20869 11.3664C9.72161 11.3983 10.204 11.6209 10.5611 11.9905C10.9181 12.3602 11.1238 12.8501 11.1378 13.3638C11.139 13.6416 11.0815 13.9164 10.969 14.1704C10.8565 14.4244 10.6916 14.6517 10.4851 14.8375C10.2785 15.0233 10.0351 15.1633 9.77066 15.2484C9.50623 15.3334 9.22681 15.3617 8.95071 15.3312C8.76051 15.3059 8.56705 15.3234 8.38448 15.3824C8.20191 15.4414 8.03483 15.5405 7.89545 15.6724C7.16309 16.2849 6.39745 16.8508 5.67508 17.4799C5.44372 17.6813 5.19572 18.0126 5.1874 18.2922C5.14246 19.9483 5.1641 21.6061 5.1641 23.2972H10.1191C10.2773 19.226 11.9584 15.9736 15.2789 13.5186C14.0323 11.2899 13.7543 8.95133 14.6614 6.5279C15.2542 4.91555 16.3668 3.54641 17.8239 2.63643C19.2793 1.70905 20.9962 1.27865 22.717 1.40979C24.4378 1.54094 26.0697 2.22656 27.3678 3.36379C29.718 5.4277 31.2176 9.35579 28.949 13.5169C32.213 15.927 33.9324 19.176 34.0872 23.3371H34.7646C37.0948 23.3371 39.42 23.3371 41.7403 23.3371C42.709 23.3371 43.0352 23.67 43.0369 24.6554C43.0369 25.8604 43.0485 27.0655 43.0369 28.2705C43.0169 30.0199 41.7486 31.2882 40.0026 31.3132C39.3002 31.3215 38.5995 31.3132 37.8671 31.3132C36.0079 39.9516 34.1671 48.5501 32.3062 57.2352C33.2683 57.2352 34.1903 57.2169 35.1108 57.2352C35.8916 57.2595 36.6319 57.5886 37.1729 58.1521C37.714 58.7156 38.0129 59.4686 38.0055 60.2498C37.9981 61.0309 37.685 61.7781 37.1333 62.3312C36.5817 62.8844 35.8353 63.1994 35.0542 63.2089C32.8754 63.2239 30.695 63.2089 28.5146 63.2089C22.0998 63.2089 15.6845 63.2089 9.26862 63.2089C7.62581 63.2089 6.34252 62.0987 6.16609 60.5591C6.1197 60.1449 6.16027 59.7255 6.28518 59.3278C6.4101 58.9302 6.61662 58.5629 6.89155 58.2496C7.16648 57.9363 7.50376 57.6838 7.88183 57.5083C8.2599 57.3328 8.67044 57.2381 9.08719 57.2302C9.99765 57.2086 10.9098 57.2302 11.8918 57.2302C10.0359 48.5751 8.19339 39.9599 6.33919 31.3015C5.62848 31.3015 4.94772 31.3015 4.26696 31.3015C2.44439 31.2849 1.18108 30.0215 1.16776 28.1973C1.15944 27.0538 1.16776 25.912 1.16776 24.7702C1.16776 23.6284 1.44573 23.3338 2.5892 23.3255C2.75065 23.3271 2.91543 23.3288 3.1601 23.3288ZM30.2673 57.2053L35.8082 31.3315H8.38979L13.9307 57.2053H30.2673ZM41.0346 25.3644H3.1601V27.8245C3.1601 29.0462 3.42808 29.3108 4.6581 29.3125H39.5299C39.6963 29.3125 39.8628 29.3125 40.0292 29.3125C40.6234 29.2709 41.0112 28.918 41.0279 28.3305C41.0529 27.3584 41.0279 26.3847 41.0279 25.3694L41.0346 25.3644ZM32.0798 23.3055C31.9384 19.7869 30.4903 17.0572 27.6424 15.0349C26.0412 16.4829 24.2336 17.2552 22.0882 17.2636C19.9427 17.2719 18.0935 16.5096 16.494 15.0732C13.6827 17.1288 12.2397 19.8351 12.1248 23.3055H32.0798ZM22.005 15.3511C25.477 15.2945 28.1185 12.6414 28.0702 9.25926C28.0387 7.67291 27.3793 6.16382 26.2367 5.06299C25.094 3.96215 23.5614 3.35946 21.975 3.38709C18.6711 3.43869 16.0529 6.19501 16.1161 9.55553C16.1794 12.7496 18.8791 15.4027 22.005 15.3511ZM22.0915 61.2216H34.7413C35.5735 61.2216 36.0462 60.862 36.0462 60.2229C36.0462 59.5838 35.5835 59.2242 34.7413 59.2242H9.63979C9.43225 59.2108 9.22394 59.2158 9.01728 59.2392C8.48133 59.3357 8.15676 59.6686 8.15676 60.2196C8.15676 60.7705 8.48966 61.1017 9.01728 61.1999C9.22383 61.2247 9.43222 61.2302 9.63979 61.2166L22.0915 61.2216Z"
            fill="currentColor" stroke="currentColor" stroke-width="1.33333" stroke-miterlimit="10" />
        <path id="Vector_2"
            d="M33.1988 34.1356C32.9058 35.5237 32.6562 36.7205 32.3998 37.9155C31.2492 43.2861 30.0974 48.6568 28.9445 54.0274C28.9145 54.1688 28.8812 54.3103 28.8396 54.4501C28.7746 54.7144 28.6095 54.9431 28.379 55.0878C28.1485 55.2325 27.8708 55.282 27.6046 55.2258C27.0703 55.1076 26.7507 54.58 26.8772 53.9691C27.1935 52.4461 27.523 50.9282 27.8492 49.4069C28.9267 44.3825 30.0036 39.3564 31.0799 34.3287C31.2564 33.5064 31.8689 33.052 32.4764 33.3733C32.7993 33.5414 33.0074 33.9259 33.1988 34.1356Z"
            fill="currentColor" stroke="currentColor" stroke-width="0.84038" stroke-miterlimit="10" />
    </g>
    <defs>
        <clipPath id="clip0_3001_20930">
            <rect width="42.8711" height="62.8295" fill="white"
                transform="translate(0.666016 0.888672)" />
        </clipPath>
    </defs>
</svg>