<svg width="64" height="64" viewBox="0 0 64 64" fill="none" xmlns="http://www.w3.org/2000/svg">
    <path fill-rule="evenodd" clip-rule="evenodd"
        d="M18.4 17H45.6C45.6487 17 45.6975 17 45.7463 17C46.7385 16.9998 47.7596 16.9996 48.6344 17.0711C49.6106 17.1509 50.8358 17.344 52.0859 17.9809C53.7794 18.8438 55.1562 20.2206 56.0191 21.9141C56.6561 23.1642 56.8492 24.3894 56.9289 25.3656C57.0004 26.2404 57.0002 27.2616 57 28.2538V43.7462C57.0002 44.7384 57.0004 45.7596 56.9289 46.6344C56.8492 47.6106 56.6561 48.8358 56.0191 50.0859C55.1562 51.7794 53.7794 53.1562 52.0859 54.0191C50.8358 54.656 49.6106 54.8491 48.6344 54.9289C47.7596 55.0004 46.7385 55.0002 45.7463 55C45.6975 55 45.6487 55 45.6 55H18.4C18.3514 55 18.3026 55 18.2538 55C17.2616 55.0002 16.2405 55.0004 15.3657 54.9289C14.3895 54.8491 13.1643 54.656 11.9141 54.0191C10.2207 53.1562 8.84384 51.7794 7.98098 50.0859C7.34399 48.8358 7.1509 47.6106 7.07114 46.6344C6.99966 45.7596 6.99984 44.7385 7.00002 43.7463C7.00003 43.6974 7.00003 43.6487 7.00003 43.6V28.4C7.00003 28.3513 7.00003 28.3026 7.00002 28.2537C6.99984 27.2615 6.99966 26.2404 7.07114 25.3656C7.1509 24.3894 7.34399 23.1642 7.98098 21.9141C8.84384 20.2206 10.2207 18.8438 11.9141 17.9809C13.1643 17.344 14.3895 17.1509 15.3657 17.0711C16.2405 16.9996 17.2616 16.9998 18.2537 17C18.3026 17 18.3514 17 18.4 17ZM12.436 24.184C12 25.0397 12 26.1598 12 28.4V43.6C12 45.8402 12 46.9603 12.436 47.816C12.8195 48.5686 13.4314 49.1805 14.1841 49.564C15.0397 50 16.1598 50 18.4 50H45.6C47.8402 50 48.9604 50 49.816 49.564C50.5686 49.1805 51.1806 48.5686 51.5641 47.816C52 46.9603 52 45.8402 52 43.6V28.4C52 26.1598 52 25.0397 51.5641 24.184C51.1806 23.4314 50.5686 22.8195 49.816 22.436C48.9604 22 47.8402 22 45.6 22H18.4C16.1598 22 15.0397 22 14.1841 22.436C13.4314 22.8195 12.8195 23.4314 12.436 24.184Z"
        fill="currentColor" />
    <path d="M18 12C18 9.79086 19.7909 8 22 8H42C44.2092 8 46 9.79086 46 12V13H18V12Z"
        fill="currentColor" />
    <path
        d="M29.198 28.3479C29.0118 28.2259 28.7941 28.1609 28.5715 28.1609C27.9403 28.1609 27.4286 28.6725 27.4286 29.3037V41.1396C27.4286 41.3517 27.4876 41.5595 27.5989 41.7399C27.9305 42.277 28.6346 42.4437 29.1717 42.1122L38.4714 36.3721C38.6138 36.2842 38.7352 36.1661 38.8269 36.0261C39.173 35.4982 39.0255 34.7898 38.4976 34.4438L29.198 28.3479Z"
        fill="currentColor" />
</svg>