<svg width="52" height="52" viewBox="0 0 52 52" fill="none" xmlns="http://www.w3.org/2000/svg">
    <g id="workshop 1" clip-path="url(#clip0_3001_13532)">
        <path id="Vector"
            d="M34.7943 46.5036H17.1976C17.1976 46.6898 17.1976 46.8508 17.1976 47.0105C17.2117 47.4362 17.1395 47.8603 16.9854 48.2573C16.8312 48.6543 16.5984 49.016 16.3008 49.3206C16.0032 49.6253 15.647 49.8665 15.2537 50.0299C14.8604 50.1932 14.4381 50.2753 14.0122 50.2711C11.0592 50.2857 8.10221 50.2051 5.15182 50.3002C3.14133 50.3649 1.10444 48.6844 1.7658 46.0508C2.42716 43.4173 4.06275 41.6695 6.68972 40.8827C6.77948 40.8563 6.86397 40.8141 6.98145 40.7678C5.27458 39.5217 4.48253 37.9006 4.93136 35.8519C5.38019 33.8031 6.77948 32.6559 8.80581 32.2388V19.698H5.16898C2.6463 19.6914 1.19024 17.8855 1.78164 15.4367C2.41396 12.8203 4.04426 11.1121 6.62767 10.3188C6.70688 10.2937 6.78608 10.2726 6.86397 10.2448C6.90521 10.2254 6.94492 10.2029 6.98277 10.1775C5.5716 9.18877 4.78219 7.86605 4.81651 6.1341C4.8228 5.53037 4.95239 4.9343 5.19733 4.38245C5.44226 3.83061 5.79738 3.33464 6.24089 2.92497C6.67897 2.50409 7.19616 2.17425 7.76254 1.95454C8.32892 1.73483 8.93324 1.6296 9.54054 1.64495C10.1479 1.66029 10.7461 1.79591 11.3006 2.04394C11.8552 2.29198 12.3551 2.64751 12.7713 3.08998C14.7251 5.15327 14.399 7.83173 11.8803 10.2184C13.0591 10.5181 14.1363 11.0105 14.9865 11.8646C15.4818 12.3901 15.9335 12.9552 16.3369 13.5543C16.4993 13.7827 16.6418 13.8843 16.923 13.883C22.9787 13.8768 29.0344 13.872 35.09 13.8685C35.2564 13.8685 35.5019 13.7787 35.5732 13.652C36.5857 11.8593 38.1011 10.7372 40.1552 10.2066C38.5935 9.10429 37.8107 7.64823 37.9876 5.76447C38.0405 5.17776 38.2101 4.60754 38.4865 4.08728C38.7628 3.56703 39.1403 3.10723 39.5968 2.73488C40.5265 1.94768 41.7299 1.56027 42.9443 1.65722C44.1587 1.75417 45.2854 2.32761 46.0784 3.25235C47.5398 4.93282 47.8883 8.10234 45.0224 10.196C45.3365 10.2976 45.6296 10.3716 45.9081 10.4838C48.4691 11.5174 49.9568 13.4091 50.337 16.1337C50.3892 16.548 50.358 16.9684 50.2454 17.3704C50.1328 17.7724 49.941 18.1479 49.6813 18.4748C49.4216 18.8016 49.0992 19.0733 48.733 19.2738C48.3668 19.4744 47.9643 19.5997 47.549 19.6425C46.7965 19.7204 46.0322 19.6848 45.2745 19.6927C44.5999 19.6993 43.9254 19.6927 43.2059 19.6927V32.2335C45.1953 32.6427 46.5933 33.7872 47.0553 35.8241C47.5173 37.861 46.7292 39.4966 45.0171 40.756C45.1596 40.8088 45.2705 40.8537 45.3841 40.888C48.209 41.812 49.8723 43.7301 50.3251 46.6607C50.6076 48.4851 49.1555 50.2329 47.3048 50.254C44.1524 50.2883 41.0001 50.283 37.849 50.254C36.1633 50.2381 34.8049 48.8019 34.7943 47.1148C34.793 46.9247 34.7943 46.7307 34.7943 46.5036ZM40.0007 40.6754C38.4087 39.5072 37.6312 37.8808 38.084 35.8294C38.5368 33.778 39.9453 32.6612 41.9241 32.2335V19.6927C41.4872 19.6927 41.0925 19.6927 40.6978 19.6927C39.6589 19.6808 38.6147 19.7283 37.5824 19.6386C36.811 19.563 36.0964 19.1996 35.5809 18.6208C35.0654 18.042 34.787 17.2902 34.8009 16.5152C34.8277 16.0376 34.8796 15.5617 34.9567 15.0896H17.0035C17.0352 15.2387 17.0537 15.3536 17.0827 15.4618C17.7032 17.9225 15.9396 19.8379 13.5911 19.7059C12.5879 19.6478 11.5793 19.6953 10.5734 19.698C10.3992 19.698 10.2249 19.7125 10.0546 19.7204V32.2467C12.1113 32.7272 13.4578 33.8955 13.8736 35.6591C14.3753 37.7805 13.6334 39.4636 11.8935 40.7441C11.9353 40.7811 11.9819 40.8122 12.0321 40.8365C14.3026 41.4543 15.8735 42.8536 16.7844 45.0146C16.8412 45.1466 17.1052 45.272 17.2728 45.272C23.0812 45.2852 28.8896 45.2812 34.698 45.2905C35.0095 45.2905 35.16 45.1967 35.2748 44.901C35.7158 43.7724 36.3982 42.7889 37.3989 42.1091C38.2186 41.552 39.1361 41.1414 40.0007 40.6688V40.6754ZM42.5828 18.5139C44.0679 18.5139 45.553 18.5284 47.0381 18.5139C48.3939 18.4954 49.3126 17.4789 49.1503 16.2195C48.8414 13.8434 47.1583 11.9081 44.794 11.4316C43.7379 11.2204 42.6304 11.2455 41.5479 11.2587C38.818 11.2943 36.5976 13.1807 36.059 15.8552C35.7395 17.4393 36.6055 18.5086 38.2318 18.5178C39.6786 18.5178 41.1307 18.5073 42.5828 18.5073V18.5139ZM9.39853 18.5139C10.8836 18.5139 12.3687 18.5244 13.8538 18.5139C15.3389 18.5033 16.2102 17.4578 15.9726 16.0057C15.6003 13.7351 13.9436 11.8738 11.6796 11.4382C10.5285 11.2177 9.31537 11.2177 8.13785 11.2705C6.86643 11.3289 5.65328 11.8207 4.7001 12.6641C3.74692 13.5076 3.11113 14.6518 2.89843 15.9067C2.61857 17.4749 3.47795 18.5007 5.08713 18.5059C6.52734 18.5178 7.9636 18.5073 9.39853 18.5073V18.5139ZM9.39853 49.0897C10.8836 49.0897 12.3687 49.0897 13.8538 49.0897C15.3059 49.0897 16.1891 48.0613 15.9805 46.6396C15.6439 44.34 13.8855 42.3982 11.5859 41.9942C10.4942 41.8015 9.35101 41.8186 8.23686 41.8622C5.499 41.9652 3.38026 43.8582 2.89447 46.5472C2.63045 48.0296 3.49511 49.0857 4.99341 49.091C6.46266 49.087 7.93059 49.0831 9.39853 49.0831V49.0897ZM42.5749 49.0897C44.1089 49.0897 45.6428 49.1055 47.1781 49.0897C47.4633 49.0876 47.7448 49.0248 48.0037 48.9053C48.2627 48.7858 48.4932 48.6125 48.6799 48.3968C48.8666 48.1812 49.0051 47.9282 49.0862 47.6548C49.1673 47.3813 49.1891 47.0938 49.1503 46.8112C48.8453 44.3862 47.0764 42.4034 44.654 41.985C43.5465 41.7936 42.3861 41.8266 41.2535 41.8714C38.6133 41.9797 36.4114 44.0153 36.0154 46.6237C35.7976 48.0494 36.6755 49.0857 38.1196 49.0923C39.6047 49.087 41.0898 49.0831 42.5749 49.0804V49.0897ZM12.8387 36.8274C12.8384 36.1515 12.6379 35.4908 12.2624 34.9288C11.8869 34.3667 11.3534 33.9285 10.7291 33.6695C10.1047 33.4105 9.41767 33.3422 8.75461 33.4734C8.09154 33.6046 7.48219 33.9293 7.00351 34.4065C6.52483 34.8837 6.19827 35.492 6.06507 36.1547C5.93186 36.8173 5.99798 37.5046 6.25508 38.1297C6.51217 38.7548 6.94872 39.2898 7.5096 39.667C8.07047 40.0441 8.73054 40.2467 9.40645 40.2491C9.85672 40.2506 10.3029 40.1633 10.7193 39.992C11.1357 39.8207 11.5143 39.5689 11.8331 39.251C12.152 38.9331 12.405 38.5554 12.5776 38.1395C12.7501 37.7236 12.8388 37.2777 12.8387 36.8274ZM45.9939 36.8274C45.9952 36.1517 45.7963 35.4908 45.4224 34.928C45.0485 34.3652 44.5162 33.9258 43.8928 33.6652C43.2694 33.4046 42.5828 33.3345 41.9195 33.4637C41.2563 33.5929 40.6462 33.9156 40.1663 34.3912C39.6863 34.8668 39.3579 35.4739 39.2226 36.1359C39.0872 36.7978 39.151 37.4851 39.4058 38.1109C39.6607 38.7367 40.0952 39.273 40.6545 39.6521C41.2138 40.0312 41.8728 40.2362 42.5485 40.2411C43.4559 40.2419 44.3269 39.8844 44.9721 39.2463C45.6173 38.6083 45.9845 37.7413 45.9939 36.834V36.8274ZM42.5617 9.64816C43.2368 9.64816 43.8968 9.44807 44.4582 9.07317C45.0196 8.69826 45.4573 8.16537 45.7161 7.54181C45.9748 6.91825 46.0429 6.232 45.9117 5.56976C45.7806 4.90752 45.4561 4.299 44.9793 3.82109C44.5025 3.34317 43.8947 3.01729 43.2328 2.88463C42.5709 2.75197 41.8845 2.81847 41.2603 3.07573C40.6362 3.33299 40.1022 3.76948 39.726 4.33004C39.3498 4.8906 39.1482 5.55009 39.1467 6.22518C39.1458 6.67514 39.2336 7.12085 39.4052 7.53682C39.5767 7.95279 39.8286 8.33086 40.1464 8.6494C40.4642 8.96793 40.8417 9.22068 41.2573 9.39319C41.6729 9.5657 42.1184 9.65459 42.5683 9.65476L42.5617 9.64816ZM12.8387 6.24894C12.8415 5.57236 12.6437 4.91012 12.2701 4.34601C11.8966 3.78189 11.3641 3.34124 10.7401 3.07979C10.116 2.81834 9.42847 2.74784 8.76436 2.87721C8.10026 3.00658 7.48944 3.33 7.00917 3.80657C6.52891 4.28315 6.20078 4.89145 6.06628 5.55454C5.93179 6.21762 5.99697 6.9057 6.25359 7.53174C6.51022 8.15777 6.94674 8.69363 7.50796 9.07153C8.06918 9.44944 8.72986 9.6524 9.40645 9.65476C9.85564 9.65719 10.3009 9.57096 10.7167 9.40098C11.1325 9.23101 11.5106 8.98065 11.8295 8.66425C12.1483 8.34786 12.4016 7.97164 12.5748 7.55717C12.748 7.1427 12.8376 6.69813 12.8387 6.24894Z"
            fill="currentColor" stroke="currentColor" stroke-width="1.77778" stroke-miterlimit="10" />
        <path id="Vector_2"
            d="M26.7238 38.886C26.2116 38.886 25.6678 38.8702 25.1265 38.8992C25.0543 38.9171 24.9867 38.9498 24.9278 38.9953C24.8689 39.0407 24.8202 39.0979 24.7846 39.1632C24.5998 39.492 24.4625 39.8484 24.2883 40.1837C24.0467 40.6444 23.6995 40.779 23.2164 40.5797C22.2307 40.1634 21.249 39.7366 20.2712 39.2992C19.7683 39.0735 19.6363 38.7329 19.8264 38.2115C19.9835 37.7798 20.3425 37.3178 20.2699 36.9336C20.1973 36.5495 19.6732 36.2736 19.3907 35.9185C19.1637 35.6307 18.9604 35.533 18.6079 35.7139C18.292 35.8541 17.9653 35.9689 17.6311 36.0571C17.2007 36.1891 16.8588 36.0452 16.6925 35.6452C16.2525 34.598 15.8344 33.5419 15.4384 32.477C15.2932 32.0915 15.4384 31.7655 15.8041 31.553C15.8331 31.5358 15.8608 31.52 15.8912 31.5054C16.3334 31.2955 16.9473 31.1965 17.173 30.8454C17.3987 30.4942 17.2654 29.891 17.2456 29.3999C17.2375 29.3131 17.2112 29.229 17.1684 29.1531C17.1256 29.0771 17.0674 29.011 16.9974 28.959C16.6767 28.761 16.3136 28.6342 15.977 28.4613C15.5057 28.2211 15.3552 27.8752 15.5546 27.4052C15.9726 26.4046 16.4069 25.4097 16.8575 24.4205C17.0727 23.9427 17.47 23.7328 17.9017 24.0021C18.901 24.6265 19.6257 24.3875 20.3056 23.5123C20.493 23.2707 20.5841 23.1163 20.4574 22.8364C20.3223 22.5185 20.2051 22.1932 20.1062 21.8622C19.9557 21.387 20.097 21.0292 20.5419 20.8471C21.5636 20.4312 22.5906 20.026 23.6243 19.6392C24.0876 19.4663 24.4163 19.622 24.6394 20.0722C24.8625 20.5223 24.9549 21.1137 25.2995 21.3487C25.644 21.5837 26.2235 21.3804 26.7001 21.4305C27.0103 21.4635 27.1489 21.3566 27.2545 21.0913C27.3865 20.7705 27.5344 20.459 27.6914 20.1514C27.9343 19.6788 28.2736 19.5349 28.7475 19.7356C29.7499 20.1553 30.747 20.5879 31.7388 21.0332C32.2088 21.2444 32.3395 21.5982 32.1626 22.0893C32.0042 22.5368 31.6345 23.0133 31.7151 23.4093C31.7956 23.8054 32.3447 24.0879 32.6391 24.4575C32.8385 24.7057 33.0167 24.7585 33.2992 24.6344C33.6333 24.494 33.9743 24.3706 34.3209 24.2648C34.5128 24.2035 34.7207 24.2165 34.9033 24.3014C35.086 24.3862 35.2301 24.5367 35.307 24.7228C35.7286 25.7472 36.1356 26.7778 36.5281 27.8145C36.6918 28.2501 36.5136 28.5946 36.1004 28.794C35.7453 28.9669 35.3625 29.0857 35.0192 29.2771C34.8777 29.3799 34.7827 29.5347 34.7552 29.7075C34.713 29.9807 34.8014 30.2791 34.7341 30.5418C34.5876 31.112 34.8529 31.3338 35.3374 31.5543C35.7119 31.7197 36.0055 32.0269 36.154 32.4084C36.3024 32.79 36.2936 33.2148 36.1294 33.5898C35.81 34.3199 35.4984 35.0538 35.1737 35.7812C34.9018 36.395 34.5427 36.5891 33.9579 36.267C33.1064 35.7957 32.4715 35.8208 31.8299 36.6406C31.5435 37.0062 31.4062 37.2188 31.5857 37.6821C31.7377 38.0879 31.7226 38.5375 31.5437 38.9322C31.3648 39.3269 31.0367 39.6345 30.6313 39.7876C29.9118 40.0649 29.1977 40.3579 28.4769 40.6325C28.2532 40.7164 28.006 40.712 27.7853 40.6203C27.5647 40.5286 27.3872 40.3565 27.2888 40.1388C27.1212 39.7639 26.9614 39.385 26.7964 39.0075C26.7745 38.9657 26.7503 38.9251 26.7238 38.886ZM28.6287 20.9725C28.436 21.3685 28.2485 21.7196 28.1007 22.0813C27.8749 22.6239 27.4776 22.7559 26.8506 22.6543C26.3355 22.5786 25.8127 22.5702 25.2955 22.6292C24.7463 22.6807 24.3952 22.5434 24.2025 22.0549C24.048 21.6589 23.8632 21.2853 23.685 20.8853L21.3484 21.8094C21.5042 22.2477 21.6349 22.6371 21.7788 23.0212C21.9491 23.4727 21.8263 23.8133 21.425 24.1314C20.9498 24.519 20.5082 24.946 20.1049 25.408C19.7815 25.771 19.4449 25.8753 19.0158 25.7037C18.6198 25.5466 18.2238 25.3948 17.7987 25.2284L16.7915 27.5386C17.1875 27.7234 17.5347 27.9016 17.8964 28.0534C18.4416 28.2844 18.5961 28.6844 18.4469 29.3907C18.3572 29.7938 18.3491 30.2107 18.4231 30.617C18.5551 31.2771 18.4469 31.7074 17.9294 31.9279C17.5268 32.0995 17.1281 32.2803 16.7044 32.4665L17.635 34.799C18.101 34.6354 18.505 34.4994 18.905 34.3502C19.3049 34.201 19.6138 34.3278 19.8977 34.6499C20.3359 35.1489 20.794 35.6281 21.2785 36.0822C21.594 36.3779 21.7207 36.6828 21.553 37.0867C21.3854 37.4907 21.2296 37.9078 21.0593 38.3461L23.3695 39.3507C23.5807 38.9085 23.7655 38.5072 23.9622 38.1098C24.1681 37.6887 24.5272 37.5818 25.0262 37.6544C25.58 37.7353 26.1416 37.7491 26.6987 37.6953C27.2809 37.6399 27.6228 37.8088 27.8142 38.3131C27.9581 38.6893 28.1416 39.051 28.3145 39.4378L30.6498 38.5138C30.4913 38.0663 30.3593 37.6768 30.2168 37.2927C30.0623 36.8755 30.1613 36.5561 30.494 36.2591C30.9889 35.8343 31.46 35.3826 31.9052 34.906C32.2286 34.5456 32.5652 34.4466 32.9929 34.6235C33.3889 34.7819 33.785 34.9271 34.2047 35.0908L35.2067 32.7886C34.7909 32.5919 34.4239 32.407 34.049 32.242C33.616 32.0519 33.4655 31.7378 33.5064 31.252C33.5632 30.5919 33.5328 29.9226 33.5275 29.2586C33.5275 28.8375 33.686 28.5537 34.0793 28.39C34.4727 28.2263 34.8608 28.0521 35.2925 27.862C34.9823 27.0699 34.6839 26.3162 34.3684 25.5241C33.9328 25.6773 33.5275 25.8066 33.1315 25.9611C32.6338 26.1551 32.2827 25.9611 31.9355 25.4594C31.6384 25.0477 31.2826 24.6817 30.8794 24.373C30.4438 24.0324 30.2537 23.6958 30.4491 23.2285C30.6194 22.8246 30.7699 22.4114 30.9402 21.9757L28.6287 20.9725Z"
            fill="currentColor" stroke="currentColor" stroke-width="1.32009" stroke-miterlimit="10" />
        <path id="Vector_3"
            d="M20.8262 30.1471C20.8298 29.1259 21.1359 28.1287 21.7056 27.2812C22.2754 26.4338 23.0834 25.7741 24.0277 25.3853C24.972 24.9966 26.0103 24.8962 27.0116 25.0969C28.0128 25.2976 28.9322 25.7903 29.6538 26.513C30.3753 27.2356 30.8666 28.1558 31.0658 29.1573C31.265 30.1589 31.163 31.197 30.7728 32.1407C30.3827 33.0844 29.7217 33.8914 28.8734 34.4599C28.0251 35.0284 27.0274 35.3329 26.0062 35.335C25.3251 35.3357 24.6505 35.2019 24.0212 34.9413C23.3919 34.6808 22.8203 34.2985 22.339 33.8165C21.8578 33.3346 21.4764 32.7623 21.2168 32.1326C20.9572 31.5029 20.8245 30.8282 20.8262 30.1471ZM22.0143 30.1801C22.0192 30.9666 22.2571 31.7341 22.6978 32.3857C23.1385 33.0372 23.7623 33.5436 24.4906 33.8409C25.2188 34.1383 26.0188 34.2132 26.7896 34.0564C27.5604 33.8995 28.2674 33.5178 28.8215 32.9595C29.3756 32.4012 29.7519 31.6912 29.9029 30.9193C30.0539 30.1473 29.9728 29.3479 29.67 28.622C29.3671 27.896 28.856 27.2761 28.2011 26.8403C27.5462 26.4046 26.777 26.1726 25.9904 26.1736C25.4658 26.1739 24.9465 26.278 24.4623 26.4799C23.9782 26.6817 23.5387 26.9774 23.1693 27.3497C22.7999 27.7221 22.5077 28.1639 22.3097 28.6497C22.1117 29.1354 22.0118 29.6555 22.0156 30.1801H22.0143Z"
            fill="currentColor" stroke="currentColor" stroke-width="1.32009" stroke-miterlimit="10" />
    </g>
    <defs>
        <clipPath id="clip0_3001_13532">
            <rect width="51.5556" height="51.5556" fill="white"
                transform="translate(0.222656 0.222656)" />
        </clipPath>
    </defs>
</svg>