<svg width="24" height="24" viewBox="0 0 24 24" fill="none" xmlns="http://www.w3.org/2000/svg">
<g clip-path="url(#clip0_3066_19856)">
<path d="M19.2986 4.8993C19.8214 4.3765 20.3246 3.87648 20.8252 3.37267C21.0987 3.09735 21.4215 2.93595 21.8145 2.92962C21.9929 2.92229 22.1709 2.95133 22.3377 3.01499C22.5045 3.07864 22.6566 3.17557 22.7848 3.29989C23.0464 3.55306 23.3038 3.80982 23.557 4.07016C24.1513 4.67714 24.1481 5.48729 23.5437 6.09237C21.9685 7.6692 20.3917 9.24414 18.8132 10.8172C17.2346 12.3902 15.6559 13.9635 14.077 15.5369C13.926 15.6825 13.7417 15.7889 13.5402 15.8471C12.6953 16.0806 11.844 16.2901 10.994 16.5021C10.5155 16.6218 10.242 16.3344 10.3712 15.854C10.5996 15.0015 10.8231 14.1451 11.0674 13.2989C11.1211 13.1278 11.2156 12.9722 11.3427 12.8457C13.6027 10.5794 15.8675 8.31795 18.1372 6.06135C18.2002 6.00453 18.2499 5.93452 18.2827 5.85629C18.3155 5.77807 18.3307 5.69356 18.3271 5.60881C18.3182 4.41637 18.3239 3.22394 18.3226 2.03213C18.3226 1.31059 17.9334 0.92514 17.2049 0.92514C12.1579 0.92514 7.11095 0.92514 2.06398 0.92514C1.31776 0.92514 0.932937 1.3049 0.932937 2.04226C0.932937 7.52215 0.932937 13.0016 0.932937 18.4807C0.932937 19.2092 1.31269 19.5851 2.04499 19.5858C4.41847 19.5858 6.79195 19.5858 9.1648 19.5813C9.40935 19.5774 9.6482 19.6553 9.8433 19.8029C11.0351 20.6617 12.2345 21.5118 13.432 22.363C13.4953 22.408 13.5586 22.4485 13.6472 22.5061V20.5358C13.5744 20.5314 13.4991 20.5263 13.4231 20.5231C13.1193 20.5105 12.906 20.3111 12.9124 20.0453C12.9187 19.7794 13.125 19.6022 13.4187 19.5858C13.482 19.5858 13.5453 19.5858 13.6086 19.5858C14.8346 19.5858 16.0612 19.5858 17.2872 19.5858C17.9201 19.5858 18.3214 19.1851 18.322 18.5478C18.3254 16.8895 18.3254 15.2314 18.322 13.5736C18.322 13.5027 18.322 13.4312 18.322 13.3603C18.3366 13.0571 18.5397 12.8476 18.8068 12.8539C19.0739 12.8603 19.2587 13.0691 19.2594 13.3641C19.2594 15.1325 19.2727 16.9009 19.2537 18.6693C19.2423 19.6984 18.391 20.5048 17.3473 20.5193C16.5245 20.5295 15.7017 20.5193 14.8789 20.5193H14.6004V20.7978C14.6004 21.6352 14.6004 22.4719 14.6004 23.3086C14.6004 23.5352 14.5554 23.7359 14.332 23.8454C14.1194 23.9492 13.9396 23.8713 13.7624 23.7435C12.3172 22.708 10.8695 21.6761 9.41924 20.6478C9.30508 20.569 9.17053 20.5251 9.03188 20.5212C6.7141 20.5145 4.39653 20.5128 2.07917 20.5162C0.809515 20.5162 0 19.7123 0 18.4484C0 12.9769 0 7.50548 0 2.03403C0 1.00426 0.588623 0.234616 1.53485 0.0333448C1.69841 0.00681957 1.86426 -0.00293537 2.0298 0.00423068C7.1004 0.00423068 12.1712 0.00423068 17.2422 0.00423068C18.4625 0.00423068 19.2644 0.804884 19.2676 2.01884C19.2676 2.95051 19.2676 3.88218 19.2676 4.81385C19.2756 4.84313 19.286 4.87171 19.2986 4.8993ZM12.2453 13.3027L13.5928 14.6318L22.0778 6.16579L20.7404 4.83221C17.9146 7.65 15.0829 10.4735 12.2453 13.3027ZM22.8196 5.48096C23.1398 5.19108 23.1468 4.98094 22.8392 4.67144C22.6335 4.46447 22.4278 4.25688 22.2189 4.05307C21.9316 3.77268 21.693 3.7923 21.4392 4.10371L22.8196 5.48096ZM11.4655 15.4179L12.5794 15.1091L11.7769 14.3084C11.6851 14.6382 11.5813 15.0046 11.4655 15.4173V15.4179Z" fill="#3138E3"/>
<path d="M10.6405 8.62845C9.8177 8.62845 8.99489 8.63225 8.17209 8.62845C7.77714 8.62529 7.53916 8.31199 7.67904 7.9873C7.77461 7.76071 7.96196 7.68919 8.19614 7.68919C9.64301 7.69172 11.0901 7.69172 12.5374 7.68919C12.7349 7.68919 12.933 7.68539 13.1304 7.68919C13.4374 7.69615 13.6501 7.89046 13.6501 8.15692C13.6501 8.42339 13.4393 8.62339 13.1304 8.62592C12.3013 8.63162 11.4709 8.62782 10.6405 8.62845Z" fill="#3138E3"/>
<path d="M6.6568 16.4436H4.56814C4.4892 16.4465 4.41017 16.4421 4.33206 16.4303C4.22184 16.4114 4.12203 16.3537 4.05074 16.2675C3.97944 16.1814 3.94138 16.0725 3.94344 15.9607C3.94912 15.8451 3.99681 15.7355 4.07757 15.6525C4.15833 15.5695 4.2666 15.5189 4.38206 15.5101C4.45231 15.5031 4.52383 15.5069 4.59535 15.5069C6.01058 15.5069 7.4256 15.5069 8.8404 15.5069C9.15244 15.5069 9.3632 15.6968 9.36953 15.9632C9.37586 16.2297 9.16193 16.4335 8.83724 16.443C8.78154 16.443 8.72648 16.443 8.67078 16.443L6.6568 16.4436Z" fill="#3138E3"/>
<path d="M6.30846 4.70889H4.43436C4.22297 4.70889 4.03752 4.62028 3.99511 4.41964C3.966 4.2558 3.99654 4.08695 4.08119 3.94368C4.14132 3.84937 4.3236 3.78924 4.45145 3.78798C5.69326 3.77658 6.93506 3.77785 8.17687 3.78355C8.49333 3.78355 8.68827 3.97659 8.68321 4.25445C8.67815 4.5323 8.48384 4.70635 8.15978 4.70825C7.54267 4.71205 6.92557 4.70825 6.3091 4.70825L6.30846 4.70889Z" fill="#3138E3"/>
<path d="M11.7329 4.7107C11.2671 4.7107 10.8006 4.71387 10.3348 4.7107C10.012 4.70754 9.81766 4.53412 9.8126 4.25753C9.80753 3.98094 10.0025 3.7879 10.3189 3.786C11.2586 3.77967 12.1983 3.77967 13.138 3.786C13.4545 3.786 13.6576 3.9841 13.6551 4.25183C13.6526 4.51956 13.4462 4.70817 13.1323 4.71134C12.6633 4.71387 12.1987 4.7107 11.7329 4.7107Z" fill="#3138E3"/>
<path d="M5.32655 7.68752C5.61137 7.68752 5.89619 7.68309 6.17974 7.68752C6.46329 7.69195 6.67596 7.88942 6.67786 8.14892C6.67837 8.21056 6.66657 8.27169 6.64316 8.32871C6.61974 8.38574 6.58519 8.43752 6.54151 8.48102C6.49783 8.52452 6.44591 8.55887 6.38879 8.58205C6.33167 8.60523 6.2705 8.61678 6.20886 8.61602C5.60884 8.62826 5.00861 8.62826 4.40818 8.61602C4.34643 8.61647 4.28523 8.60448 4.22823 8.58075C4.17122 8.55702 4.11959 8.52204 4.0764 8.47791C4.03321 8.43378 3.99937 8.3814 3.97688 8.3239C3.95439 8.26639 3.94372 8.20494 3.94551 8.14322C3.9512 7.88436 4.15943 7.69258 4.45185 7.68815C4.74426 7.68372 5.03477 7.68688 5.32655 7.68752Z" fill="#3138E3"/>
<path d="M8.81955 12.5266C8.55942 12.5266 8.29928 12.531 8.03915 12.5266C7.74104 12.5209 7.54357 12.3367 7.53914 12.0734C7.53471 11.8101 7.72902 11.6107 8.02396 11.6069C8.55224 11.5998 9.07968 11.5998 9.60628 11.6069C9.89996 11.6107 10.0987 11.8082 10.0955 12.0709C10.0924 12.3335 9.89489 12.5209 9.59805 12.5272C9.34045 12.531 9.07968 12.5266 8.81955 12.5266Z" fill="#3138E3"/>
<path d="M5.36421 12.5271C5.19838 12.5271 5.03192 12.5334 4.86609 12.5271C4.74614 12.5271 4.63098 12.4801 4.54539 12.396C4.4598 12.312 4.41064 12.1977 4.40849 12.0777C4.40638 12.0183 4.41608 11.959 4.43705 11.9034C4.45801 11.8477 4.48982 11.7968 4.53062 11.7535C4.57142 11.7102 4.6204 11.6755 4.67473 11.6513C4.72906 11.6271 4.78765 11.6139 4.8471 11.6125C5.20281 11.6005 5.55915 11.6005 5.91422 11.6125C6.02992 11.6157 6.13989 11.6636 6.2209 11.7463C6.30191 11.8289 6.34763 11.9398 6.34841 12.0556C6.35053 12.1754 6.30594 12.2914 6.22407 12.3789C6.14221 12.4664 6.0295 12.5187 5.90979 12.5246H5.86232H5.36421V12.5271Z" fill="#3138E3"/>
<path d="M15.4119 4.70846C15.2537 4.70846 15.0954 4.71543 14.9378 4.70846C14.8182 4.70603 14.7041 4.65733 14.6196 4.57259C14.5351 4.48785 14.4868 4.37367 14.4847 4.25402C14.4805 4.13776 14.5223 4.02454 14.6009 3.9388C14.6795 3.85306 14.7887 3.80169 14.9049 3.79578C15.2362 3.77901 15.568 3.77901 15.8993 3.79578C16.0152 3.80249 16.1239 3.85447 16.2019 3.94054C16.2799 4.0266 16.321 4.13986 16.3163 4.25592C16.3157 4.37182 16.2706 4.48306 16.1905 4.56676C16.1103 4.65047 16.0011 4.70027 15.8853 4.70593C15.7284 4.71733 15.5689 4.70593 15.4119 4.70593V4.70846Z" fill="#3138E3"/>
</g>
<defs>
<clipPath id="clip0_3066_19856">
<rect width="24" height="23.8968" fill="white"/>
</clipPath>
</defs>
</svg>
