<svg width="36" height="30" viewBox="0 0 36 30" fill="none" xmlns="http://www.w3.org/2000/svg">
<g clip-path="url(#clip0_3066_19848)">
<path d="M35.6303 25.7993C35.427 26.0693 35.1525 26.1368 34.8169 26.1332C33.5119 26.1197 32.2068 26.1332 30.9008 26.1269C30.1069 26.1269 29.739 25.7669 29.7381 24.9909C29.7381 22.1157 29.7381 19.2407 29.7381 16.3661V15.9322C29.0375 15.9322 28.3692 15.9088 27.7047 15.9385C27.0455 15.9669 26.3936 15.7937 25.8404 15.4434C23.8163 14.2326 21.7663 13.0615 19.7319 11.8651C19.3398 11.6267 18.8854 11.5036 18.4232 11.5104C17.071 11.5266 15.7197 11.523 14.3675 11.5104C14.0958 11.4997 13.8257 11.556 13.5823 11.6742C13.3389 11.7924 13.1302 11.9686 12.9755 12.1865C12.115 13.3126 11.2407 14.4298 10.3765 15.5532C9.84596 16.2437 9.94116 17.1007 10.5937 17.5913C11.2462 18.0819 12.1206 17.9513 12.6751 17.2717C13.3425 16.4534 13.9941 15.6234 14.6596 14.8042C15.2622 14.0616 16.1033 13.9122 16.9323 14.4118C20.3447 16.475 23.7556 18.5377 27.1649 20.5997C27.9274 21.0615 28.274 21.7313 28.1428 22.5973C28.0226 23.3768 27.5439 23.9017 26.7712 24.1348C26.4708 24.2248 26.1408 24.2248 25.7748 24.2662C25.7074 24.8199 25.4689 25.3465 24.943 25.7237C24.4171 26.1008 23.8255 26.1584 23.1785 26.0279C23.0944 26.6788 22.8227 27.218 22.2497 27.5772C21.6951 27.9273 21.0869 27.9669 20.4427 27.7707C20.4168 27.8787 20.3974 27.9633 20.3762 28.048C20.3072 28.3218 20.1778 28.5778 19.997 28.798C19.8161 29.0182 19.5882 29.1974 19.329 29.3231C19.0699 29.4487 18.7857 29.5179 18.4963 29.5258C18.2069 29.5336 17.9192 29.48 17.6533 29.3686C17.3464 29.2398 17.0442 29.0985 16.7438 28.9572C16.3621 28.7771 16.2632 28.5521 16.3935 28.1623C16.4286 28.0561 16.4859 27.9561 16.5266 27.8517C16.6038 27.6865 16.6158 27.4994 16.5602 27.3262C16.5046 27.1529 16.3854 27.0057 16.2253 26.9128C16.0657 26.8173 15.8748 26.7844 15.6913 26.8206C15.5077 26.8569 15.3451 26.9597 15.2363 27.1082C15.069 27.3215 14.922 27.5511 14.7742 27.7779C14.4729 28.2334 14.532 28.5215 14.9147 28.9122C15.0477 29.0463 15.1568 29.2902 15.1291 29.4604C15.1032 29.6143 14.8962 29.8052 14.7307 29.8529C14.5653 29.9006 14.3425 29.815 14.1993 29.7133C13.8363 29.4473 13.5875 29.0596 13.5013 28.6252C13.4151 28.1907 13.4975 27.7406 13.7325 27.362C13.8952 27.0919 14.0902 26.8381 14.2575 26.5698C14.5006 26.1819 14.4183 25.7597 14.068 25.5301C13.6983 25.288 13.2658 25.3789 12.9829 25.766C12.836 25.9676 12.6992 26.1756 12.5633 26.3844C12.286 26.8138 12.3258 27.1496 12.7177 27.4844C12.9312 27.6645 13.0328 27.8733 12.933 28.1389C12.8036 28.4864 12.3886 28.58 12.0429 28.3477C11.2832 27.8373 11.0457 26.7796 11.5207 25.9739C11.6816 25.7038 11.8757 25.4491 12.0457 25.1817C12.3027 24.7748 12.2223 24.349 11.8516 24.1168C11.481 23.8845 11.054 23.98 10.7721 24.3734C10.626 24.5759 10.4874 24.7829 10.3525 24.9918C10.0807 25.4122 10.1371 25.721 10.4966 26.072C10.6168 26.19 10.7462 26.37 10.7416 26.5221C10.737 26.6743 10.6205 26.9218 10.4856 26.9803C10.3888 27.0162 10.2854 27.032 10.182 27.0269C10.0785 27.0218 9.97735 26.9958 9.88478 26.9506C9.08806 26.4915 8.83666 25.3924 9.31635 24.5723C9.47071 24.3094 9.65741 24.0655 9.82285 23.8089C10.1001 23.384 10.0317 22.9492 9.65926 22.7116C9.28678 22.4739 8.85145 22.5757 8.5566 22.9897C8.43183 23.1644 8.3126 23.3444 8.19429 23.5236C7.8671 24.0142 7.90407 24.2905 8.3468 24.7001C8.66382 24.9927 8.64071 25.4482 8.26638 25.5877C8.16728 25.6182 8.06281 25.6285 7.95946 25.6179C7.85611 25.6074 7.75609 25.5763 7.66561 25.5265C7.05282 25.1331 6.83376 24.5363 6.86981 23.8098H6.03797C6.03797 24.1933 6.03797 24.593 6.03797 24.9918C6.03797 25.766 5.66826 26.1278 4.87524 26.1287C3.57017 26.1287 2.26418 26.1215 0.95911 26.135C0.624524 26.135 0.349091 26.0693 0.146676 25.8011V25.3969C0.313044 25.1331 0.550582 25.0422 0.872228 25.0458C2.09596 25.0602 3.31969 25.0512 4.54343 25.0512H4.91313V14.5441H4.5083C3.30675 14.5441 2.1052 14.536 0.903653 14.5495C0.577386 14.5495 0.318591 14.4757 0.132812 14.2092V13.805C0.311197 13.5287 0.570916 13.4567 0.898108 13.4603C2.14495 13.4738 3.39363 13.4657 4.64047 13.4657C5.72002 13.4657 5.95941 13.679 6.04629 14.7655H6.37163C7.3301 14.7655 8.28856 14.7574 9.24703 14.7709C9.34845 14.7774 9.44979 14.7573 9.5405 14.7126C9.6312 14.668 9.70796 14.6004 9.76278 14.5171C10.517 13.5386 11.2915 12.5736 12.0402 11.5905C12.6428 10.7984 13.4266 10.4203 14.4433 10.432C15.8066 10.4491 17.1689 10.4428 18.5322 10.432C19.1118 10.4234 19.6818 10.5758 20.1756 10.8713C22.3322 12.1316 24.4889 13.3876 26.6455 14.6395C26.8733 14.7649 27.1289 14.8347 27.3904 14.843C28.1604 14.8691 28.9321 14.8529 29.6882 14.8529C29.6995 14.8296 29.7079 14.8052 29.7131 14.7799C29.6475 13.8365 30.0828 13.4125 31.1809 13.4539C32.4037 13.5008 33.6293 13.4729 34.8539 13.4594C35.1811 13.4594 35.4399 13.5287 35.6192 13.8041V14.2083C35.4344 14.4784 35.1746 14.5522 34.8475 14.5486C33.6357 14.5351 32.4231 14.5432 31.2114 14.5432H30.8601V25.0485H31.2567C32.4693 25.0485 33.681 25.0575 34.8937 25.0431C35.2153 25.0386 35.4482 25.1331 35.6192 25.3942L35.6303 25.7993ZM17.6181 28.1506C17.7559 28.2172 17.8779 28.2793 18.0036 28.336C18.4657 28.5458 18.9472 28.426 19.1885 28.0363C19.4399 27.6321 19.3216 27.1676 18.8825 26.866C18.6053 26.6698 18.3076 26.4897 18.0294 26.2899C17.7512 26.09 17.6949 25.7732 17.8806 25.5229C18.0544 25.288 18.3659 25.233 18.6515 25.405C18.8779 25.54 19.0868 25.7002 19.3114 25.838C19.7883 26.1323 20.2616 26.4357 20.7542 26.704C20.9476 26.811 21.1762 26.8403 21.3915 26.7857C21.6067 26.731 21.7916 26.5968 21.9068 26.4114C22.0276 26.2303 22.0727 26.0111 22.0328 25.7987C21.993 25.5863 21.8711 25.3967 21.6923 25.269C21.5934 25.1925 21.4844 25.1277 21.3781 25.0602C20.8864 24.7469 20.3882 24.4409 19.8992 24.1186C19.6026 23.9224 19.5443 23.6172 19.7246 23.3588C19.8955 23.1149 20.195 23.0546 20.488 23.2121C20.5989 23.2724 20.7006 23.3471 20.8087 23.411C21.635 23.9035 22.4511 24.4121 23.2904 24.882C23.905 25.2249 24.6075 24.8559 24.6389 24.2023C24.6565 23.8287 24.4614 23.5722 24.1453 23.3741C23.3844 22.9054 22.6268 22.4328 21.8726 21.9563C21.5315 21.7403 21.4409 21.4333 21.6202 21.1578C21.7995 20.8824 22.1249 20.8347 22.4687 21.0462C23.1896 21.4909 23.9032 21.9464 24.626 22.3893C25.0068 22.6225 25.3922 22.8493 25.7887 23.0555C26.1279 23.2355 26.4634 23.1779 26.7555 22.9384C27.0475 22.699 27.1464 22.3758 27.0096 22.058C26.895 21.8177 26.7114 21.6148 26.481 21.4738C23.1382 19.4334 19.7889 17.4046 16.4332 15.3876C15.9794 15.1175 15.7918 15.1472 15.4664 15.5532C14.8056 16.376 14.1577 17.2087 13.4811 18.0198C12.8184 18.8146 11.9394 19.1261 10.9181 18.901C9.8968 18.676 9.21653 18.0171 8.98639 17.0043C8.90321 16.6443 8.94018 16.2554 8.92262 15.8719H6.05461V22.7026C6.29162 22.6885 6.52928 22.6885 6.76629 22.7026C7.20809 22.7566 7.47891 22.6126 7.75249 22.2399C8.58433 21.0939 10.3636 21.3118 10.9514 22.6C10.9976 22.7008 11.0383 22.8043 11.0845 22.915C12.1936 22.8358 12.933 23.2985 13.2833 24.3256C14.3924 24.2416 15.1248 24.7082 15.4803 25.7255C17.1301 25.5994 17.9712 26.8921 17.6181 28.1506Z" fill="#3138E3" stroke="#3138E3" stroke-width="0.232558" stroke-miterlimit="10"/>
<path d="M14.4053 4.85765C14.3046 4.98997 14.2205 5.19972 14.0753 5.26003C13.9127 5.32755 13.6132 5.33745 13.5051 5.23843C12.8433 4.6461 12.2111 4.02586 11.5872 3.39122C11.3802 3.17968 11.419 2.90061 11.639 2.69357C11.8589 2.48652 12.1399 2.45952 12.3581 2.66206C13.005 3.25799 13.6225 3.87643 14.2436 4.49397C14.3166 4.56688 14.3341 4.69291 14.4053 4.85765Z" fill="#3138E3" stroke="#3138E3" stroke-width="0.232558" stroke-miterlimit="10"/>
<path d="M21.8238 5.39593C21.6852 5.2843 21.4745 5.19518 21.4172 5.04935C21.3552 4.88821 21.3599 4.60825 21.4661 4.49663C22.0688 3.86649 22.7001 3.25526 23.3433 2.66022C23.5624 2.45858 23.8452 2.49189 24.0615 2.70163C24.2778 2.91138 24.3101 3.18864 24.1049 3.39929C23.494 4.02943 22.859 4.62986 22.2222 5.23209C22.1399 5.31041 21.9967 5.32751 21.8238 5.39593Z" fill="#3138E3" stroke="#3138E3" stroke-width="0.232558" stroke-miterlimit="10"/>
<path d="M10.9776 7.31024C11.3806 7.31024 11.7845 7.30214 12.1875 7.31024C12.5701 7.31924 12.8114 7.53529 12.8114 7.84496C12.8114 8.15463 12.5655 8.37788 12.1875 8.38508C11.3803 8.39408 10.5737 8.39408 9.76776 8.38508C9.39805 8.38058 9.14942 8.14022 9.16051 7.83326C9.1716 7.52629 9.40452 7.32554 9.76683 7.31564C10.1744 7.30214 10.5774 7.31024 10.9776 7.31024Z" fill="#3138E3" stroke="#3138E3" stroke-width="0.232558" stroke-miterlimit="10"/>
<path d="M18.4678 1.91086C18.4678 2.30244 18.4743 2.69493 18.4678 3.08652C18.4595 3.44029 18.2506 3.66354 17.9401 3.67614C17.6295 3.68875 17.3698 3.452 17.3642 3.09282C17.3525 2.29764 17.3525 1.50307 17.3642 0.709092C17.3698 0.367917 17.6129 0.137466 17.9188 0.134766C18.2386 0.134766 18.4632 0.367919 18.4734 0.7361C18.4678 1.12769 18.4678 1.51927 18.4678 1.91086Z" fill="#3138E3" stroke="#3138E3" stroke-width="0.232558" stroke-miterlimit="10"/>
<path d="M24.9395 8.38583C24.5476 8.38583 24.1548 8.39303 23.7619 8.38583C23.3691 8.37862 23.1445 8.17338 23.1445 7.84571C23.1445 7.51803 23.3664 7.31549 23.761 7.31099C24.5577 7.30259 25.3545 7.30259 26.1512 7.31099C26.5458 7.31099 26.7686 7.52164 26.7686 7.84571C26.7686 8.16978 26.5458 8.37412 26.1521 8.38583C25.7584 8.39753 25.3443 8.38583 24.9395 8.38583Z" fill="#3138E3" stroke="#3138E3" stroke-width="0.232558" stroke-miterlimit="10"/>
</g>
<defs>
<clipPath id="clip0_3066_19848">
<rect width="35.7692" height="30" fill="white"/>
</clipPath>
</defs>
</svg>
