<svg width="48" height="47" viewBox="0 0 48 47" fill="none" xmlns="http://www.w3.org/2000/svg">
<g clip-path="url(#clip0_3066_19836)">
<path d="M27.6852 41.2288C25.2948 41.9051 22.7637 41.9051 20.3733 41.2288L19.4356 42.853C18.876 43.8262 18.3191 44.8021 17.7527 45.7712C17.3009 46.5478 16.7194 46.5901 16.1434 45.8831C15.5675 45.1761 14.9846 44.4991 14.44 43.7798C14.2189 43.4877 13.9882 43.429 13.6566 43.4863C12.5496 43.6733 11.4386 43.833 10.333 44.0323C9.92353 44.1046 9.58093 44.0719 9.34071 43.7102C9.10048 43.3485 9.19193 43.01 9.3953 42.6592C10.5978 40.5832 11.7853 38.4989 12.9973 36.4283C13.1679 36.1363 13.157 35.9411 12.9768 35.6585C7.92666 27.7038 12.6479 17.2117 21.9566 15.6857C29.2289 14.4941 36.1517 19.6999 37.013 27.0145C37.3815 30.1224 36.74 33.0051 35.0721 35.6503C34.9905 35.753 34.9452 35.8798 34.9432 36.0109C34.9412 36.142 34.9827 36.2701 35.0612 36.3751C36.2691 38.4225 37.4539 40.4944 38.6536 42.5527C38.872 42.9267 39.0222 43.2966 38.7355 43.6911C38.4489 44.0855 38.0913 44.0473 37.6777 43.9763C36.6063 43.788 35.5253 43.6447 34.4538 43.4577C34.3009 43.4167 34.139 43.4257 33.9916 43.4834C33.8442 43.5411 33.7192 43.6445 33.6348 43.7784C33.0889 44.4977 32.5074 45.187 31.9355 45.8845C31.3814 46.5669 30.7958 46.5205 30.3577 45.7726C29.5155 44.3339 28.6816 42.8899 27.8421 41.4485C27.7985 41.3775 27.7452 41.3134 27.6852 41.2288ZM24.0122 17.1776C21.7436 17.1776 19.5261 17.8506 17.6401 19.1114C15.7542 20.3721 14.2847 22.1641 13.4176 24.2604C12.5504 26.3566 12.3247 28.663 12.7688 30.8877C13.213 33.1123 14.3071 35.1552 15.9128 36.7578C17.5184 38.3604 19.5633 39.4506 21.7888 39.8905C24.0143 40.3304 26.3203 40.1003 28.4149 39.2291C30.5095 38.358 32.2987 36.8851 33.5559 34.9967C34.8131 33.1084 35.4818 30.8896 35.4775 28.621C35.4787 27.1161 35.1829 25.6256 34.6069 24.2353C34.0309 22.8449 33.1861 21.5819 32.1209 20.5187C31.0557 19.4556 29.7911 18.6132 28.3996 18.0398C27.0081 17.4665 25.5172 17.1734 24.0122 17.1776ZM16.8123 44.1319C17.4947 42.9445 18.1376 41.828 18.805 40.6691C17.098 39.9052 15.5631 38.8039 14.2926 37.4316L11.5628 42.1883C12.4841 42.0395 13.2908 41.9276 14.0893 41.7788C14.3039 41.7231 14.5306 41.735 14.7382 41.8129C14.9459 41.8909 15.1244 42.031 15.2494 42.2142C15.7367 42.8394 16.2595 43.4481 16.8123 44.1319ZM29.2657 40.6528L31.2735 44.1101C31.7949 43.47 32.3054 42.8817 32.775 42.2593C33.123 41.7925 33.5202 41.6396 34.0976 41.7624C34.8619 41.9235 35.6426 42.0054 36.5203 42.1378L33.7904 37.3892C32.5243 38.7785 30.9836 39.8898 29.2657 40.6528Z" fill="#3138E3" stroke="#3138E3" stroke-width="0.392413" stroke-miterlimit="10"/>
<path d="M23.9601 0.287109C24.3014 0.613324 24.6167 0.800319 24.7654 1.0774C25.2322 1.94412 25.6458 2.84087 26.0635 3.73352C26.1055 3.85074 26.1819 3.95254 26.2827 4.0256C26.3836 4.09866 26.5041 4.13958 26.6285 4.143C27.5758 4.244 28.5162 4.39824 29.4607 4.51835C29.8702 4.57158 30.2251 4.6876 30.3657 5.13393C30.5022 5.55842 30.2906 5.84914 30.004 6.12076C29.3379 6.75408 28.6868 7.40378 28.0099 8.02482C27.7451 8.26641 27.6454 8.48616 27.73 8.86151C27.9389 9.78966 28.0808 10.7328 28.2583 11.6691C28.3306 12.0513 28.2719 12.3803 27.9375 12.6246C27.6031 12.8689 27.3069 12.7979 26.9821 12.6246C26.1017 12.1469 25.22 11.6691 24.3218 11.2201C24.2205 11.1776 24.1117 11.1556 24.0018 11.1556C23.8919 11.1556 23.783 11.1776 23.6817 11.2201C22.8163 11.6541 21.9687 12.125 21.1184 12.585C20.7703 12.7761 20.4277 12.8867 20.0701 12.626C19.7125 12.3653 19.6934 12.0268 19.7739 11.6241C19.9609 10.6905 20.1056 9.74871 20.2885 8.81374C20.3253 8.68504 20.3235 8.54836 20.2832 8.4207C20.2429 8.29305 20.166 8.18006 20.0619 8.0958C19.359 7.45292 18.6779 6.78411 17.9859 6.13032C17.702 5.85734 17.4686 5.58435 17.6078 5.15031C17.747 4.71626 18.0924 4.58387 18.51 4.53064C19.4655 4.40916 20.4332 4.28086 21.3886 4.12116C21.4874 4.09832 21.5806 4.05571 21.6624 3.99589C21.7443 3.93607 21.8132 3.86028 21.865 3.77311C22.325 2.88182 22.729 1.96186 23.1985 1.07603C23.3391 0.805777 23.6298 0.617419 23.9601 0.287109ZM26.3474 10.4353C26.2204 9.71049 26.1317 9.07034 25.9898 8.44658C25.936 8.25028 25.9405 8.04261 26.0025 7.84877C26.0645 7.65494 26.1815 7.48328 26.3392 7.35464C26.8101 6.91924 27.2673 6.46882 27.7983 5.9597C27.0721 5.85324 26.4416 5.73312 25.8069 5.67443C25.3196 5.63076 25.0398 5.38917 24.8514 4.96331C24.5962 4.39824 24.3055 3.84681 23.9902 3.18892C23.694 3.79631 23.4114 4.29587 23.2067 4.82682C22.9815 5.40691 22.5939 5.67853 21.9783 5.72767C21.4078 5.77407 20.8399 5.87371 20.3035 5.94469C20.7403 6.41012 21.1498 6.88238 21.6002 7.3096C21.951 7.64674 22.1039 7.99206 21.9851 8.48889C21.8391 9.09492 21.7626 9.71731 21.6398 10.4271C22.2745 10.0913 22.8464 9.81013 23.3964 9.4921C23.5748 9.37626 23.7829 9.3146 23.9956 9.3146C24.2083 9.3146 24.4165 9.37626 24.5948 9.4921C25.1422 9.80603 25.7018 10.0899 26.3474 10.4353Z" fill="#3138E3" stroke="#3138E3" stroke-width="0.392413" stroke-miterlimit="10"/>
<path d="M38.046 20.1421C37.3977 20.1421 37.0483 19.7081 37.1452 19.1334C37.3063 18.178 37.4714 17.2225 37.6625 16.2671C37.71 16.1068 37.7079 15.9359 37.6565 15.7769C37.6051 15.6178 37.5068 15.478 37.3745 15.3758C36.6921 14.7657 36.0423 14.1092 35.3735 13.4786C35.0842 13.2056 34.8794 12.9203 35.0159 12.4931C35.1524 12.0659 35.4909 11.9471 35.8799 11.898C36.8067 11.7738 37.7335 11.6414 38.6616 11.5281C38.8121 11.5226 38.9575 11.4722 39.0791 11.3835C39.2007 11.2947 39.293 11.1716 39.3441 11.0299C39.7071 10.211 40.1275 9.40704 40.5084 8.59082C40.6899 8.20045 40.8892 7.85922 41.3846 7.86332C41.8801 7.86741 42.0671 8.22775 42.2527 8.60856C42.639 9.42751 43.0512 10.2246 43.4197 11.0463C43.574 11.3889 43.7951 11.5063 44.1554 11.5459C45.1013 11.6469 46.0431 11.8025 46.9876 11.9212C47.363 11.969 47.625 12.1328 47.7492 12.4972C47.8734 12.8616 47.7233 13.1578 47.4612 13.409C46.7378 14.1064 46.0021 14.7916 45.3006 15.5096C45.2302 15.5936 45.1773 15.6909 45.1452 15.7957C45.1131 15.9005 45.1023 16.0107 45.1136 16.1197C45.2637 17.0942 45.4548 18.062 45.6404 19.0311C45.7128 19.4132 45.6814 19.8091 45.3142 19.9619C45.0109 20.0801 44.6744 20.0801 44.3711 19.9619C43.5098 19.5606 42.6786 19.0911 41.8514 18.6189C41.5389 18.4414 41.2945 18.4196 40.9711 18.6079C40.163 19.0788 39.3332 19.5088 38.506 19.9469C38.357 20.0217 38.2034 20.0869 38.046 20.1421ZM37.7075 13.3175C38.1457 13.7911 38.5401 14.2566 38.9783 14.6824C39.3454 15.0332 39.4983 15.3963 39.3727 15.9109C39.2281 16.5101 39.1557 17.127 39.037 17.8136C39.6266 17.501 40.1548 17.2608 40.6394 16.9509C41.1662 16.6152 41.6344 16.6356 42.1544 16.9605C42.6403 17.2649 43.1658 17.5064 43.7459 17.8163C43.6217 17.1024 43.5357 16.4637 43.3952 15.8385C43.2873 15.3622 43.4388 15.0264 43.7719 14.7002C44.2141 14.2634 44.6181 13.7884 45.0508 13.3175C44.5048 13.2411 43.9493 13.1264 43.3815 13.0923C42.7796 13.0568 42.4124 12.7852 42.1845 12.2351C41.9565 11.6851 41.6835 11.1801 41.3874 10.5686C41.053 11.251 40.7486 11.838 40.4783 12.4372C40.4033 12.6184 40.2785 12.7747 40.1184 12.888C39.9582 13.0013 39.7693 13.0669 39.5734 13.0773C38.9496 13.151 38.3286 13.2397 37.7075 13.3216V13.3175Z" fill="#3138E3" stroke="#3138E3" stroke-width="0.392413" stroke-miterlimit="10"/>
<path d="M10.8995 19.2967C10.9173 19.9996 10.2648 20.3818 9.63698 20.0583C8.77708 19.6133 7.92128 19.1575 7.08049 18.6784C6.76656 18.4996 6.52361 18.4764 6.20012 18.6647C5.38117 19.1411 4.5281 19.5724 3.69414 20.0296C3.35427 20.2166 3.01987 20.2794 2.68956 20.0419C2.35925 19.8044 2.31557 19.47 2.39064 19.0865C2.57764 18.1188 2.76463 17.1497 2.90522 16.1751C2.91185 16.0574 2.89486 15.9394 2.85525 15.8283C2.81563 15.7172 2.7542 15.6152 2.67455 15.5282C1.99209 14.8348 1.28506 14.1742 0.582128 13.5067C0.309145 13.246 0.11533 12.9689 0.247726 12.5636C0.380123 12.1582 0.672212 12.0176 1.05439 11.9671C1.98117 11.8456 2.90658 11.7064 3.83472 11.5958C4.20189 11.5522 4.43665 11.4239 4.59635 11.0499C4.96897 10.1941 5.40301 9.36419 5.8002 8.51931C5.96536 8.16989 6.18511 7.91739 6.60004 7.91602C7.01498 7.91466 7.24292 8.16989 7.40807 8.51385C7.8271 9.3874 8.26251 10.2528 8.66516 11.1331C8.7167 11.2655 8.80632 11.3795 8.9227 11.4609C9.03907 11.5423 9.17697 11.5874 9.31896 11.5904C10.2744 11.7009 11.2394 11.8511 12.2003 11.9712C12.5729 12.0176 12.9155 12.1677 12.9428 12.5417C12.9671 12.8655 12.8697 13.1867 12.6698 13.4426C12.0119 14.1537 11.3049 14.817 10.5829 15.4667C10.4659 15.5618 10.3798 15.6895 10.3356 15.8337C10.2913 15.9778 10.2909 16.1318 10.3345 16.2761C10.5365 17.2985 10.718 18.3194 10.8995 19.2967ZM8.95998 17.8663C8.84942 17.2207 8.79619 16.6474 8.64605 16.1001C8.47407 15.4722 8.65697 15.0327 9.12787 14.615C9.54963 14.2424 9.90178 13.7961 10.2921 13.3689C9.77074 13.2952 9.25344 13.1709 8.73204 13.16C7.99226 13.1464 7.58688 12.7847 7.333 12.1254C7.14328 11.6354 6.88122 11.17 6.6096 10.6158C6.2943 11.2696 6.01995 11.7965 5.79065 12.3411C5.70778 12.5738 5.55579 12.7756 5.35502 12.9195C5.15426 13.0635 4.91431 13.1426 4.66732 13.1464C4.0845 13.1901 3.50714 13.302 3.00213 13.373C3.4348 13.8561 3.86202 14.3571 4.31654 14.832C4.59771 15.1269 4.72601 15.4285 4.63456 15.8421C4.49807 16.4877 4.40253 17.1401 4.27696 17.8663C4.92393 17.5209 5.50538 17.222 6.0841 16.8972C6.24204 16.7969 6.42525 16.7436 6.61233 16.7436C6.7994 16.7436 6.98262 16.7969 7.14055 16.8972C7.70836 17.2138 8.29527 17.5127 8.95998 17.8663Z" fill="#3138E3" stroke="#3138E3" stroke-width="0.392413" stroke-miterlimit="10"/>
<path d="M32.0787 28.6454C32.0762 30.2376 31.6019 31.7933 30.7155 33.116C29.8292 34.4387 28.5706 35.469 27.0989 36.0766C25.6272 36.6842 24.0084 36.842 22.4471 36.5298C20.8858 36.2177 19.452 35.4498 18.327 34.3231C17.202 33.1964 16.4362 31.7614 16.1265 30.1996C15.8168 28.6378 15.977 27.0193 16.5868 25.5485C17.1967 24.0777 18.2289 22.8207 19.5529 21.9364C20.877 21.0521 22.4334 20.5801 24.0257 20.5801C26.1607 20.5894 28.2054 21.4426 29.714 22.9534C31.2225 24.4643 32.0725 26.5103 32.0787 28.6454ZM24.0175 22.2207C22.748 22.2223 21.5075 22.6006 20.4531 23.3076C19.3987 24.0145 18.5778 25.0185 18.0942 26.1922C17.6107 27.366 17.4862 28.6569 17.7367 29.9014C17.9871 31.1459 18.6012 32.2882 19.5011 33.1835C20.4011 34.0789 21.5465 34.6871 22.7923 34.9312C24.0381 35.1753 25.3283 35.0443 26.4996 34.5547C27.6709 34.0652 28.6706 33.2391 29.3721 32.1811C30.0737 31.1231 30.4456 29.8807 30.4408 28.6112C30.4289 26.9144 29.7473 25.2908 28.5443 24.094C27.3414 22.8972 25.7144 22.2239 24.0175 22.2207Z" fill="#3138E3" stroke="#3138E3" stroke-width="0.392413" stroke-miterlimit="10"/>
<path d="M22.7199 30.2709L26.2222 26.7467C26.337 26.6211 26.4606 26.5039 26.5921 26.3959C26.9579 26.1229 27.3346 26.1379 27.6554 26.4532C27.9761 26.7685 27.998 27.1521 27.7305 27.5151C27.5688 27.7126 27.3927 27.8978 27.2036 28.0693C25.8987 29.3842 24.5907 30.6977 23.2795 32.0098C22.6666 32.6213 22.1589 32.5558 21.7248 31.816C21.2526 31.008 20.7858 30.1977 20.3244 29.3851C20.005 28.82 20.0937 28.3559 20.5551 28.1089C20.9932 27.8727 21.415 28.0338 21.733 28.5716C22.051 29.1094 22.3636 29.6553 22.7199 30.2709Z" fill="#3138E3" stroke="#3138E3" stroke-width="0.392413" stroke-miterlimit="10"/>
</g>
<defs>
<clipPath id="clip0_3066_19836">
<rect width="48" height="46.59" fill="white"/>
</clipPath>
</defs>
</svg>
