<svg width="24" height="25" viewBox="0 0 24 25" fill="none" xmlns="http://www.w3.org/2000/svg">
<g clip-path="url(#clip0_3066_22091)">
<path d="M22.5539 0.000501146C22.7752 0.127668 22.8338 0.322924 22.8333 0.569247C22.8286 3.78847 22.8274 7.00786 22.8298 10.2274C22.8298 10.6605 22.6991 10.7907 22.2665 10.7907C18.6431 10.7907 15.0199 10.7897 11.3968 10.7877C11.211 10.7877 11.1014 10.8282 10.9962 11.0054C10.8191 11.3037 10.5329 11.5212 10.1981 11.612C9.86331 11.7027 9.50636 11.6596 9.20288 11.4916C8.64916 11.1942 8.09893 10.8908 7.54671 10.5904C7.47862 10.5534 7.40753 10.5208 7.30339 10.4687V10.7852C7.30339 11.5682 7.30172 12.3509 7.29838 13.1332C7.29838 13.4957 7.1612 13.6409 6.80674 13.6414C5.43494 13.6437 4.06314 13.6437 2.69134 13.6414C2.33337 13.6414 2.2032 13.5032 2.19869 13.1367C2.19869 12.9775 2.19869 12.8188 2.19869 12.6811C1.97139 12.6686 1.76812 12.6811 1.57637 12.6421C1.11577 12.542 0.727758 12.1414 0.725255 11.6763C0.716744 10.6214 0.619616 9.56155 0.81287 8.51317C0.950925 7.78182 1.24442 7.08864 1.6735 6.48051C1.84491 6.22339 2.07571 6.01132 2.34637 5.86222C2.61704 5.71312 2.91962 5.63137 3.22854 5.62388C4.17979 5.58233 5.13104 5.59084 6.08229 5.60586C6.67006 5.61487 7.14368 5.90275 7.5372 6.32781C7.61179 6.40891 7.67938 6.49703 7.79053 6.6282V6.3238C7.79053 4.40328 7.79303 2.48326 7.78702 0.562738C7.78702 0.31241 7.8476 0.121159 8.0739 0L22.5539 0.000501146ZM13.1736 5.78259C13.1205 5.8667 13.08 5.93529 13.0354 6.00138C12.3645 6.99768 11.6977 7.9975 11.0173 8.9878C10.8771 9.19156 10.784 9.35778 11.0007 9.56205C11.0573 9.62053 11.0954 9.69435 11.1104 9.77433C11.1464 9.95306 11.2501 9.98661 11.4183 9.98611C14.8718 9.98177 18.3254 9.98043 21.7789 9.9821C21.856 9.9821 21.9331 9.97409 22.0037 9.97009V0.815571H8.61161C8.6071 0.90619 8.60009 0.984793 8.60009 1.0629C8.60009 3.28181 8.60159 5.50139 8.6046 7.72164C8.6046 7.8453 8.64064 8.03054 8.72475 8.08211C9.18185 8.36197 9.65948 8.6088 10.1386 8.87114L12.5162 5.34451L13.1736 5.78259ZM6.50684 12.8278C6.50684 12.5775 6.50684 12.3442 6.50684 12.1119C6.50985 11.1843 6.51319 10.2566 6.51686 9.32874C6.51686 8.94224 6.64903 8.7595 6.91738 8.7635C7.18574 8.76751 7.30539 8.94424 7.30689 9.31423C7.30082 9.34581 7.30082 9.37826 7.30689 9.40985C7.33744 9.47644 7.36247 9.56656 7.41804 9.5971C8.14249 10.0016 8.86995 10.4062 9.60191 10.7927C9.97339 10.9879 10.3959 10.7071 10.3995 10.286C10.402 10.0096 10.2493 9.83841 10.021 9.71475C9.45521 9.40585 8.88597 9.10345 8.32573 8.78453C8.19414 8.70931 8.08146 8.60502 7.9963 8.47963C7.6889 8.01652 7.40302 7.5394 7.10162 7.07178C6.84279 6.67126 6.48281 6.4019 5.99317 6.39339C5.13805 6.3777 4.28276 6.37854 3.4273 6.39589C2.97671 6.40591 2.57618 6.56111 2.30683 6.96164C1.94436 7.50485 1.64546 8.08962 1.59339 8.73947C1.5198 9.66168 1.5218 10.5919 1.50528 11.5161C1.50178 11.7424 1.65548 11.8751 1.85123 11.8726C2.04699 11.8701 2.17916 11.7404 2.19268 11.5106C2.20319 11.3339 2.19619 11.1561 2.19669 10.9784C2.19669 10.2845 2.19318 9.59059 2.19969 8.89718C2.19969 8.63633 2.36991 8.47112 2.60022 8.47412C2.83052 8.47713 2.98272 8.64685 2.99223 8.90669C2.99473 8.97127 2.99223 9.03586 2.99223 9.10044V12.8253L6.50684 12.8278Z" fill="#3138E3"/>
<path d="M8.33165 23.102C8.33165 22.6745 8.29761 22.2439 8.33866 21.8203C8.42728 20.9061 8.92843 20.2388 9.67842 19.7391C11.3897 18.5996 13.7653 18.875 15.0615 20.3644C15.4986 20.8651 15.7033 21.4594 15.7123 22.1167C15.7224 22.8427 15.7183 23.5686 15.7123 24.2951C15.7123 24.6641 15.5216 24.8193 15.1551 24.7747C15.0353 24.7602 14.9148 24.7527 14.7941 24.7522C12.8165 24.7522 10.8393 24.7522 8.86235 24.7522C8.39023 24.7522 8.27408 24.634 8.28159 24.1664C8.28509 23.9892 8.2921 23.8115 8.2941 23.6342C8.2961 23.457 8.2941 23.2793 8.2941 23.1015L8.33165 23.102ZM9.14172 23.9426H14.9058C14.9058 23.3053 14.9108 22.6855 14.9058 22.0652C14.9065 21.8304 14.8603 21.5978 14.7698 21.3812C14.6794 21.1645 14.5465 20.9681 14.3791 20.8035C13.0774 19.4978 10.915 19.5193 9.63636 20.819C9.36301 21.0969 9.16775 21.4363 9.15173 21.8233C9.12219 22.5223 9.14172 23.2237 9.14172 23.9426Z" fill="#3138E3"/>
<path d="M3.5728 24.7522C2.56415 24.7522 1.55532 24.7522 0.546331 24.7522C0.123276 24.7522 -0.0043915 24.622 0.000114412 24.204C0.0106282 23.5346 0.0346599 22.8647 0.033158 22.1953C0.033158 21.2481 0.414658 20.4986 1.14962 19.9159C2.64308 18.7318 4.87852 18.7458 6.35646 19.9489C7.05437 20.5181 7.42586 21.2476 7.43187 22.1518C7.43688 22.8617 7.43688 23.5716 7.43187 24.2816C7.43187 24.6696 7.24713 24.8213 6.86462 24.7732C6.76069 24.7597 6.65602 24.7527 6.55121 24.7522C5.55824 24.7512 4.56544 24.7512 3.5728 24.7522ZM6.6198 23.9481C6.6198 23.2607 6.63733 22.5994 6.6138 21.9395C6.59777 21.4994 6.40752 21.1104 6.09211 20.799C4.89954 19.6185 2.99705 19.4888 1.61373 20.5732C1.10757 20.9702 0.842219 21.4924 0.833708 22.1398C0.826031 22.6878 0.818856 23.236 0.81218 23.7844C0.814864 23.8393 0.821051 23.894 0.830704 23.9481H6.6198Z" fill="#3138E3"/>
<path d="M16.6148 23.118C16.6148 22.6905 16.5808 22.2599 16.6218 21.8363C16.7219 20.822 17.3022 20.1211 18.1553 19.6209C19.6913 18.7197 21.6214 18.8669 22.9561 19.9799C23.642 20.5516 23.994 21.2816 23.998 22.1758C24.0003 22.8767 24.0003 23.5786 23.998 24.2815C23.998 24.6685 23.8137 24.8228 23.4327 24.7752C23.3208 24.7617 23.2081 24.7547 23.0953 24.7542C21.118 24.7542 19.1411 24.7542 17.1645 24.7542C16.6639 24.7542 16.5612 24.643 16.5687 24.1354C16.5742 23.7964 16.5687 23.4575 16.5687 23.119L16.6148 23.118ZM23.1884 23.9506C23.1884 23.3053 23.1929 22.6849 23.1884 22.0651C23.1896 21.8302 23.1435 21.5975 23.053 21.3808C22.9624 21.164 22.8292 20.9677 22.6612 20.8035C21.4742 19.6219 19.5712 19.4872 18.1834 20.5727C17.6787 20.9677 17.4073 21.4869 17.4043 22.1382C17.4043 22.5172 17.3878 22.8957 17.3823 23.2747C17.3788 23.4975 17.3823 23.7198 17.3823 23.9506H23.1884Z" fill="#3138E3"/>
<path d="M6.92019 2.89088C6.91998 3.33287 6.78888 3.76489 6.54341 4.13245C6.29794 4.50001 5.94911 4.78664 5.54093 4.95616C5.13274 5.12569 4.68349 5.17052 4.24985 5.08501C3.81621 4.99949 3.41762 4.78746 3.10435 4.47566C2.79109 4.16386 2.57719 3.76626 2.48964 3.33303C2.4021 2.8998 2.44482 2.45034 2.61244 2.04136C2.78005 1.63239 3.06503 1.28222 3.43144 1.03503C3.79784 0.787846 4.22925 0.654716 4.67123 0.652442C5.90435 0.640926 6.91618 1.64825 6.92019 2.89088ZM4.70628 1.45199C4.41886 1.44608 4.13615 1.52562 3.89399 1.68054C3.65182 1.83546 3.4611 2.05879 3.34599 2.32222C3.23087 2.58564 3.19655 2.87732 3.24738 3.16027C3.2982 3.44322 3.43188 3.70472 3.63147 3.91162C3.83106 4.11852 4.08758 4.26151 4.36853 4.32247C4.64947 4.38344 4.94219 4.35962 5.20958 4.25406C5.47698 4.14849 5.70701 3.96591 5.87054 3.72947C6.03407 3.49303 6.12372 3.21337 6.12815 2.92593C6.13392 2.54255 5.98781 2.17245 5.72171 1.8964C5.45561 1.62036 5.09111 1.46078 4.70778 1.45249L4.70628 1.45199Z" fill="#3138E3"/>
<path d="M5.76944 16.3395C5.76835 16.7449 5.64725 17.1409 5.42141 17.4775C5.19557 17.8142 4.87511 18.0764 4.50043 18.2312C4.12575 18.3859 3.71363 18.4263 3.31604 18.3472C2.91845 18.268 2.5532 18.0729 2.26634 17.7865C1.97948 17.5001 1.78386 17.1351 1.70414 16.7376C1.62443 16.3401 1.66418 15.928 1.8184 15.5531C1.97262 15.1782 2.2344 14.8573 2.57072 14.631C2.90705 14.4046 3.30285 14.283 3.70824 14.2813C3.97913 14.2796 4.24766 14.3317 4.49829 14.4345C4.74892 14.5373 4.97667 14.6888 5.16836 14.8802C5.36005 15.0717 5.51188 15.2992 5.61506 15.5497C5.71823 15.8001 5.77071 16.0686 5.76944 16.3395ZM2.4621 16.333C2.45967 16.6665 2.58882 16.9875 2.82154 17.2264C3.05426 17.4653 3.37178 17.6028 3.70523 17.6092C4.38863 17.6172 4.96789 17.0439 4.9739 16.3535C4.97832 16.1866 4.94944 16.0204 4.88893 15.8647C4.82842 15.7091 4.7375 15.567 4.62148 15.4469C4.50547 15.3268 4.36668 15.231 4.21322 15.1651C4.05976 15.0992 3.89471 15.0645 3.72771 15.0631C3.5607 15.0617 3.3951 15.0936 3.24056 15.1569C3.08602 15.2202 2.94564 15.3137 2.82763 15.4319C2.70962 15.5501 2.61634 15.6906 2.55324 15.8452C2.49013 15.9998 2.45847 16.1655 2.4601 16.3325L2.4621 16.333Z" fill="#3138E3"/>
<path d="M18.2308 16.3094C18.234 16.0366 18.2916 15.7673 18.4002 15.5171C18.5087 15.2669 18.666 15.0408 18.8629 14.8521C19.0598 14.6634 19.2923 14.5158 19.5469 14.4179C19.8014 14.3201 20.073 14.2739 20.3456 14.2822C21.447 14.3047 22.3542 15.2535 22.3352 16.3654C22.3331 16.6382 22.2766 16.9077 22.1692 17.1584C22.0617 17.4091 21.9053 17.6359 21.7092 17.8254C21.5132 18.015 21.2812 18.1636 21.0271 18.2625C20.7729 18.3614 20.5016 18.4087 20.2289 18.4016C19.1064 18.3831 18.2113 17.4453 18.2308 16.3094ZM19.0233 16.3519C19.0278 17.0428 19.6046 17.6161 20.289 17.6101C20.5393 17.6099 20.784 17.5354 20.992 17.396C21.2 17.2566 21.3619 17.0586 21.4573 16.8272C21.5526 16.5957 21.5772 16.3411 21.5277 16.0957C21.4783 15.8502 21.3571 15.625 21.1796 15.4485C21.002 15.272 20.776 15.1522 20.5303 15.1042C20.2846 15.0562 20.0302 15.0822 19.7993 15.179C19.5684 15.2757 19.3714 15.4388 19.2332 15.6476C19.0951 15.8564 19.022 16.1016 19.0233 16.3519Z" fill="#3138E3"/>
<path d="M14.0506 16.3522C14.047 16.7586 13.9228 17.1548 13.6938 17.4906C13.4648 17.8264 13.1412 18.0866 12.7642 18.2383C12.3871 18.39 11.9735 18.4263 11.5757 18.3427C11.178 18.2591 10.814 18.0593 10.5299 17.7686C10.2459 17.478 10.0545 17.1095 9.98004 16.7099C9.9056 16.3104 9.95144 15.8977 10.1118 15.5242C10.2721 15.1507 10.5397 14.8332 10.8807 14.612C11.2216 14.3908 11.6206 14.2757 12.027 14.2815C12.5697 14.2883 13.0876 14.5102 13.467 14.8984C13.8463 15.2866 14.0562 15.8094 14.0506 16.3522ZM13.2551 16.3487C13.2544 16.1004 13.1802 15.8579 13.0418 15.6517C12.9035 15.4455 12.7072 15.285 12.4777 15.1902C12.2483 15.0954 11.9959 15.0708 11.7524 15.1192C11.5089 15.1677 11.2852 15.2873 11.1095 15.4627C10.9339 15.6382 10.8141 15.8617 10.7653 16.1051C10.7165 16.3486 10.7409 16.601 10.8354 16.8306C10.9299 17.0602 11.0902 17.2567 11.2962 17.3953C11.5022 17.5338 11.7446 17.6083 11.9929 17.6093C12.3273 17.6091 12.648 17.4762 12.8846 17.2399C13.1212 17.0036 13.2544 16.6831 13.2551 16.3487Z" fill="#3138E3"/>
<path d="M20.7485 8.99096H19.9785V2.10742H20.7485V8.99096Z" fill="#3138E3"/>
<path d="M15.4309 8.98676H14.6699V4.93945H15.4309V8.98676Z" fill="#3138E3"/>
<path d="M17.8281 5.19336H18.6066V8.98383H17.8281V5.19336Z" fill="#3138E3"/>
<path d="M16.2832 6.39453H17.0457V8.98393H16.2832V6.39453Z" fill="#3138E3"/>
</g>
<defs>
<clipPath id="clip0_3066_22091">
<rect width="24" height="24.783" fill="white"/>
</clipPath>
</defs>
</svg>
