<svg width="40" height="35" viewBox="0 0 40 35" fill="none" xmlns="http://www.w3.org/2000/svg">
<g clip-path="url(#clip0_3066_20001)">
<path d="M39.8461 7.57613C39.609 7.7325 39.3915 7.9593 39.1305 8.0349C38.1643 8.31451 37.1867 8.5527 36.2091 8.78882C36.002 8.83853 35.915 8.92034 35.8756 9.13574C35.7193 10.0005 35.5132 10.8569 35.3713 11.7247C35.2574 12.4238 34.9001 12.9447 34.3554 13.3579C33.3705 14.1066 32.2252 14.467 31.027 14.6234C28.0113 15.019 25.2887 14.2961 22.9203 12.3533C22.2993 11.8613 21.7965 11.2364 21.4487 10.5245C21.2284 10.0662 21.1685 9.54718 21.2789 9.05082C21.457 8.19024 21.602 7.32344 21.7967 6.467C21.865 6.16875 21.7718 6.02895 21.545 5.86946C20.7321 5.29574 19.9378 4.69613 19.13 4.11619C18.867 3.92771 18.6899 3.71335 18.7593 3.37263C18.8287 3.03192 19.0855 2.93251 19.3723 2.85484C22.8602 1.97043 26.3468 1.08327 29.8319 0.193348C29.9916 0.14779 30.16 0.141998 30.3225 0.176475C30.4849 0.210952 30.6365 0.284652 30.7639 0.391148C33.6346 2.50446 36.5084 4.61501 39.3853 6.7228C39.5504 6.86424 39.7034 7.01907 39.843 7.18571L39.8461 7.57613ZM37.7542 7.10079C37.714 7.05252 37.6704 7.00718 37.6237 6.96513C35.1659 5.1618 32.706 3.36159 30.2441 1.56448C30.1191 1.4913 29.9708 1.46905 29.8298 1.50234C27.9026 1.97768 25.9784 2.46649 24.0533 2.95218C22.9928 3.2204 21.9334 3.49173 20.8305 3.77238C20.9226 3.85626 20.9734 3.91218 21.0376 3.95568C23.4623 5.73622 25.8894 7.51227 28.3189 9.28383C28.4639 9.37247 28.6376 9.40143 28.8035 9.36461C30.5185 8.94209 32.2293 8.50299 33.9411 8.06804L37.7542 7.10079ZM22.9783 6.94234C22.8437 7.62687 22.7598 8.28137 22.5796 8.90998C22.3725 9.64526 22.5796 10.2262 23.0653 10.7554C23.2086 10.9215 23.3607 11.0798 23.521 11.2297C25.4886 12.9716 27.8011 13.6458 30.388 13.4376C31.3832 13.3579 32.3556 13.1435 33.2224 12.6091C33.5414 12.4124 33.9474 12.1493 34.0406 11.8335C34.3026 10.9936 34.4196 10.1082 34.6039 9.19581C34.4641 9.2248 34.3968 9.23723 34.3202 9.25587C32.4841 9.71982 30.6459 10.1765 28.8149 10.6581C28.6388 10.7131 28.4516 10.723 28.2707 10.6868C28.0897 10.6506 27.9208 10.5695 27.7793 10.451C26.3129 9.35011 24.831 8.27619 23.3532 7.18778C23.2403 7.11115 23.1212 7.03865 22.9783 6.94234Z" fill="#3138E3" stroke="#3138E3" stroke-width="0.31068" stroke-miterlimit="10"/>
<path d="M3.87672 30.5598V29.5139C3.87672 23.495 3.87672 17.4764 3.87672 11.4582C3.87672 10.1274 4.57368 9.43359 5.91167 9.43359H19.0886C19.1798 9.43359 19.2699 9.43359 19.36 9.43359C19.7348 9.45431 19.9865 9.69146 19.9979 10.0291C20.0005 10.1928 19.9392 10.351 19.8271 10.4703C19.715 10.5896 19.5608 10.6605 19.3972 10.668C19.2683 10.6768 19.139 10.6789 19.0099 10.6742H5.94999C5.25199 10.6742 5.12151 10.8099 5.12151 11.512V29.7251C5.12151 30.4107 5.27271 30.5598 5.96863 30.5598H32.7906C33.5073 30.5598 33.6512 30.4148 33.6512 29.6992C33.6512 25.1177 33.6512 20.5359 33.6512 15.9537C33.6434 15.8246 33.6465 15.695 33.6605 15.5664C33.7144 15.2495 33.9029 15.0486 34.2301 15.032C34.5781 15.0113 34.7914 15.1998 34.8732 15.5271C34.8947 15.6546 34.9006 15.7843 34.8908 15.9133C34.8908 20.5342 34.8908 25.155 34.8908 29.7759C34.8908 30.0203 34.866 30.2636 34.8494 30.5598H35.2378C36.1294 30.5598 37.0211 30.5546 37.9127 30.5598C38.3694 30.5598 38.5921 30.799 38.6034 31.2599C38.6438 32.9707 37.3742 34.2859 35.6789 34.2859H3.08863C1.38817 34.2859 0.124745 32.9852 0.156848 31.2682C0.165133 30.7876 0.387787 30.5619 0.875554 30.5588C1.75374 30.5536 2.63607 30.5588 3.51115 30.5588L3.87672 30.5598ZM37.2634 31.8315H1.49691C1.75685 32.6921 2.22183 33.0452 3.08345 33.0452H35.6758C36.5333 33.0452 36.9983 32.6931 37.2634 31.8315Z" fill="#3138E3" stroke="#3138E3" stroke-width="0.31068" stroke-miterlimit="10"/>
<path d="M15.0122 20.9177C15.0122 19.1579 15.0122 17.3974 15.0122 15.6362C15.0122 14.816 15.4264 14.5643 16.1514 14.9454C19.5219 16.7108 22.8921 18.4779 26.2619 20.2467C26.5446 20.3948 26.8159 20.5501 26.8118 20.9229C26.8077 21.2957 26.5353 21.4469 26.2526 21.595C22.8821 23.3597 19.5122 25.1264 16.1431 26.8952C15.4181 27.2742 15.0101 27.0215 15.0039 26.192C15.008 24.4357 15.0108 22.6776 15.0122 20.9177ZM16.286 16.4222V25.4257L24.8618 20.9219L16.286 16.4222Z" fill="#3138E3" stroke="#3138E3" stroke-width="0.31068" stroke-miterlimit="10"/>
</g>
<defs>
<clipPath id="clip0_3066_20001">
<rect width="40" height="34.443" fill="white"/>
</clipPath>
</defs>
</svg>
